<svg width="22" height="27" viewBox="0 0 22 27" fill="none" xmlns="http://www.w3.org/2000/svg">
<path fill-rule="evenodd" clip-rule="evenodd" d="M11.7178 2.00028C12.6169 2.00028 12.7878 2.01798 12.9289 2.0764C13.0699 2.13482 13.2033 2.2432 13.8391 2.87896L18.3707 7.4106C19.0065 8.04636 19.1149 8.17977 19.1733 8.32081C19.2317 8.46185 19.2494 8.63283 19.2494 9.53192V21.7495C19.2494 22.7206 19.2473 23.3483 19.1851 23.8108C19.1268 24.2446 19.0326 24.3805 18.9565 24.4566C18.8804 24.5328 18.7444 24.6269 18.3107 24.6852C17.8482 24.7474 17.2205 24.7495 16.2494 24.7495H5.00001C4.02893 24.7495 3.40122 24.7474 2.93871 24.6852C2.50497 24.6269 2.36902 24.5328 2.2929 24.4566C2.21677 24.3805 2.12263 24.2446 2.06431 23.8108C2.00213 23.3483 2 22.7206 2 21.7495L2.00001 5.00028C2.00001 4.0292 2.00213 3.40149 2.06431 2.93898C2.12263 2.50524 2.21677 2.3693 2.2929 2.29317C2.36902 2.21705 2.50497 2.1229 2.93871 2.06459C3.40122 2.0024 4.02893 2.00028 5.00001 2.00028H11.7178ZM13.6942 0.228641C13.1378 -0.00182939 12.5354 -0.000904078 11.8566 0.000138408L11.7178 0.000280028H5.00001L4.93418 0.000277644C4.04769 0.000227815 3.28387 0.00018502 2.67221 0.0824205C2.0167 0.170552 1.38835 0.369297 0.878685 0.87896C0.369023 1.38862 0.170278 2.01697 0.0821463 2.67249C-8.93474e-05 3.28415 -4.65549e-05 4.04796 3.15537e-06 4.93445L5.59916e-06 5.00028L4.88391e-06 21.7495L2.44012e-06 21.8153C-4.73894e-05 22.7018 -9.0301e-05 23.4657 0.0821453 24.0773C0.170277 24.7328 0.369022 25.3612 0.878684 25.8708C1.38835 26.3805 2.0167 26.5792 2.67221 26.6674C3.28388 26.7496 4.0477 26.7496 4.9342 26.7495L5.00001 26.7495H16.2494L16.3152 26.7495C17.2017 26.7496 17.9655 26.7496 18.5772 26.6674C19.2327 26.5792 19.8611 26.3805 20.3707 25.8708C20.8804 25.3612 21.0791 24.7328 21.1673 24.0773C21.2495 23.4656 21.2495 22.7018 21.2494 21.8153L21.2494 21.7495V9.53192L21.2496 9.39311C21.2506 8.7143 21.2515 8.11185 21.0211 7.55545C20.7906 6.99904 20.3639 6.5737 19.8832 6.09445L19.7849 5.99639L15.2533 1.46475L15.1552 1.36649C14.676 0.885759 14.2507 0.459112 13.6942 0.228641ZM11.6247 11.9999V17.148L13.355 15.4177C13.7455 15.0272 14.3787 15.0272 14.7692 15.4177C15.1597 15.8082 15.1597 16.4414 14.7692 16.8319L12.0193 19.5818C11.2491 20.352 10.0003 20.352 9.23012 19.5818L6.48021 16.8319C6.08968 16.4414 6.08968 15.8082 6.48021 15.4177C6.87073 15.0272 7.5039 15.0272 7.89442 15.4177L9.62471 17.148V11.9999C9.62471 11.4477 10.0724 10.9999 10.6247 10.9999C11.177 10.9999 11.6247 11.4477 11.6247 11.9999Z" fill="white"/>
</svg>
