<svg width="180" height="101" viewBox="0 0 180 101" fill="none" xmlns="http://www.w3.org/2000/svg">
<g clip-path="url(#clip0_211_1902)">
<g clip-path="url(#clip1_211_1902)">
<path d="M0 58.7348C15.0165 64.1585 25.6009 78.5776 25.5347 95.1794L42.4035 100.934C52.194 88.3667 69.1952 82.7446 85.0055 87.9037L95.8545 73.683C86.527 59.9254 87.2547 42.0668 96.6483 29.169L86.3947 14.5514C70.3859 19.1814 53.6494 12.964 44.3219 0L27.1224 5.09299C26.5932 21.0334 16.2073 35.5848 0.396913 40.7439L0 58.7348Z" fill="#008AAB"/>
<path d="M83.4839 49.0118C82.3594 48.0858 80.5732 47.9535 79.6471 47.9535H77.7949C77.6626 47.9535 77.5964 47.8874 77.4641 47.8212C77.3979 47.7551 77.3318 47.6228 77.3318 47.4905L77.861 41.4054L78.5887 37.7675L78.721 30.8887L40.2204 17.6601L24.6747 38.2967C24.0793 38.0321 23.2855 37.8998 22.2932 37.8998C20.441 37.8998 19.1179 38.3628 17.9272 39.355C16.538 40.5455 16.1411 41.8022 16.0088 43.1912L14.818 57.0151C14.6857 58.5364 14.6857 60.1238 16.0088 61.4466C16.9349 62.3726 18.5225 62.9679 20.1102 62.9679C21.4994 62.9679 22.8224 62.5711 23.8809 61.9096L39.0297 83.6045L77.9933 71.6988L78.1918 62.6372H79.2502C81.1025 62.6372 82.1609 62.0419 82.7563 61.5128C84.2778 60.2561 84.4101 58.4041 84.5424 57.0812L84.807 53.9725C84.8731 52.3189 85.0716 50.3347 83.4839 49.0118Z" fill="#435363"/>
<path d="M26.5931 57.8088C26.4608 59.1978 26.13 60.5868 24.7408 61.8435C23.6163 62.8356 21.8963 63.497 19.9779 63.497C18.4564 63.497 16.6703 62.9679 15.5457 61.8435C14.0904 60.3883 14.0904 58.7348 14.2227 57.0812L15.4134 43.2574C15.5457 41.6699 16.0088 40.3471 17.4641 39.0904C18.9195 37.8336 20.5071 37.5029 22.0948 37.5029C23.947 37.5029 25.3362 38.0982 26.2623 38.9581C27.7838 40.4132 27.7838 42.2652 27.7177 43.5881L27.5192 46.2999H23.4178L23.6824 43.1912C23.7486 42.5959 23.7486 42.0668 23.3517 41.5376C23.0209 41.0746 22.4917 40.9424 21.8963 40.9424C21.1686 40.9424 20.6394 41.2069 20.3087 41.4715C19.7133 42.0006 19.581 42.7282 19.5148 43.3235L18.2579 57.478C18.1918 58.0733 18.1256 58.6686 18.5887 59.2639C19.0518 59.793 19.7794 59.8592 20.2425 59.8592C20.7717 59.8592 21.4332 59.7269 21.8963 59.1978C22.3594 58.6686 22.3594 58.1395 22.4255 57.6765L22.7563 53.5095H26.8577L26.5931 57.8088Z" fill="white"/>
<path d="M48.5557 37.7675C47.1665 37.7675 45.7112 38.8919 45.3143 40.2809L39.1621 63.0341H43.3958L44.5204 58.4041H48.9526L49.2834 63.0341H53.5833L51.3341 40.3471C51.2018 38.9581 49.9449 37.7675 48.5557 37.7675ZM45.3804 54.8324L47.9603 44.7786H48.0265L48.8203 54.8324H45.3804Z" fill="white"/>
<path d="M29.1731 41.2069V41.3392H33.6053L31.6869 63.0341H35.7883L37.7067 41.3392H42.0728L42.4035 37.8337H32.9438C31.0254 37.7675 29.3716 39.3549 29.1731 41.2069Z" fill="white"/>
<path d="M83.6825 48.6811C82.4917 47.689 80.7056 47.5567 79.5811 47.5567H77.7288L78.5888 37.8337H77.9273C76.0088 37.8337 74.355 39.355 74.2227 41.2731L72.3043 63.1002H79.2503C81.1687 63.1002 82.3594 62.4388 83.021 61.9096C84.7409 60.5206 84.8732 58.4041 84.9394 57.0151L85.204 54.1048C85.3363 52.2528 85.4686 50.0701 83.6825 48.6811ZM81.0364 54.0387L80.7718 57.3458C80.7718 57.6104 80.6395 58.3379 80.2426 58.8009C79.7134 59.4624 79.118 59.4624 78.6549 59.4624H76.7365L77.4642 50.9961H79.118C79.8457 50.9961 80.6395 51.1284 81.0364 52.1205C81.1026 52.6497 81.1026 53.5757 81.0364 54.0387Z" fill="white"/>
<path d="M102.668 41.2069V41.3392H107.1L105.182 63.0341H109.283L111.202 41.3392H115.568L115.899 37.8337H106.439C104.52 37.7675 102.8 39.3549 102.668 41.2069Z" fill="#435363"/>
<path d="M115.965 63.0341L118.148 37.7675H125.028C126.549 37.7675 128.071 38.4289 128.798 39.2888C129.857 40.5455 129.791 42.0668 129.658 43.3235L129.327 47.0936C129.195 48.2842 129.063 50.0701 127.74 51.2606C127.012 51.9221 125.821 52.5174 123.969 52.5835C123.043 52.6496 121.852 52.5174 120.926 52.3851L120 62.9679H115.965V63.0341ZM123.506 48.8795C124.101 48.8795 124.631 48.8795 125.028 48.1519C125.094 48.0196 125.226 47.6228 125.358 46.2999L125.623 43.5881C125.689 42.9928 125.755 42.3975 125.424 41.9345C125.028 41.3392 124.3 41.3392 123.903 41.3392H122.051L121.389 48.9456H123.506V48.8795Z" fill="#435363"/>
<path d="M156.384 57.4119C156.251 58.8009 155.921 60.1899 154.531 61.4466C153.407 62.4388 151.687 63.1002 149.768 63.1002C148.247 63.1002 146.461 62.5711 145.336 61.4466C143.881 59.9915 143.881 58.3379 144.013 56.6843L145.204 43.5219C145.336 41.9345 145.799 40.6117 147.255 39.3549C148.71 38.0982 150.298 37.7675 151.885 37.7675C153.738 37.7675 155.127 38.3628 156.053 39.2227C157.574 40.6778 157.574 42.5298 157.508 43.8527L157.244 46.6306H153.142L153.407 43.5219C153.473 42.9267 153.473 42.3975 153.076 41.8684C152.745 41.4054 152.216 41.2731 151.621 41.2731C150.893 41.2731 150.364 41.5377 150.033 41.8022C149.438 42.3314 149.305 43.0589 149.239 43.6542L147.982 57.1473C147.916 57.7426 147.85 58.3379 148.313 58.9332C148.776 59.4623 149.504 59.5285 149.967 59.5285C150.496 59.5285 151.158 59.3962 151.621 58.8671C152.084 58.3379 152.084 57.8088 152.15 57.3458L152.481 53.1788H156.582L156.384 57.4119Z" fill="#435363"/>
<path d="M132.238 41.2069L131.246 52.5835L130.32 63.0341H141.367L141.698 59.5285H134.752L135.48 50.9299H140.441L140.772 47.4244H135.81L136.34 41.3392H142.756L143.087 37.8337H136.009C134.09 37.7675 132.437 39.3549 132.238 41.2069Z" fill="#435363"/>
<path d="M158.897 41.2069V41.3392H163.33L161.411 63.0341H165.513L167.431 41.3392H171.797L172.128 37.8337H162.668C160.75 37.7675 159.096 39.3549 158.897 41.2069Z" fill="#435363"/>
<path d="M104.123 74.8736L104.586 69.7144H108.423L107.96 74.8736H107.233L107.629 70.3759H105.182L104.785 74.8736H104.123Z" fill="white"/>
<path d="M109.548 74.8736L110.011 69.7144H112.128C112.392 69.7144 112.591 69.7806 112.789 69.8467C112.988 69.9129 113.12 70.0452 113.186 70.1774C113.319 70.3097 113.385 70.5082 113.385 70.6404C113.451 70.8389 113.451 71.0373 113.451 71.1696C113.451 71.368 113.385 71.5003 113.319 71.6987C113.252 71.8972 113.12 72.0294 112.988 72.1617C112.855 72.294 112.657 72.4263 112.525 72.4924C112.326 72.5586 112.128 72.6247 111.863 72.6247H110.408L110.209 74.6752H109.548V74.8736ZM110.474 72.1617H111.797C112.062 72.1617 112.326 72.0956 112.459 71.8972C112.657 71.7649 112.723 71.5003 112.789 71.2357C112.789 70.9712 112.723 70.7066 112.591 70.5743C112.459 70.442 112.194 70.3097 111.929 70.3097H110.606L110.474 72.1617Z" fill="white"/>
<path d="M114.575 73.1539L114.708 71.368C114.708 71.1035 114.774 70.8389 114.906 70.6405C115.038 70.442 115.171 70.2436 115.369 70.1113C115.568 69.979 115.766 69.8467 116.031 69.7806C116.295 69.7145 116.56 69.6483 116.825 69.6483C117.089 69.6483 117.354 69.7145 117.552 69.7806C117.751 69.8467 117.949 69.979 118.148 70.1113C118.28 70.2436 118.412 70.442 118.478 70.6405C118.545 70.8389 118.611 71.1035 118.545 71.368L118.412 73.1539C118.412 73.4185 118.346 73.683 118.214 73.8814C118.081 74.0799 117.949 74.2783 117.751 74.4106C117.552 74.5429 117.354 74.6752 117.089 74.7413C116.825 74.8074 116.626 74.8736 116.295 74.8736C116.031 74.8736 115.766 74.8074 115.502 74.7413C115.237 74.6752 115.105 74.5429 114.906 74.4106C114.774 74.2783 114.642 74.0799 114.575 73.8814C114.575 73.683 114.509 73.4185 114.575 73.1539ZM115.237 73.0877C115.237 73.2862 115.237 73.4846 115.303 73.6169C115.369 73.7492 115.435 73.8815 115.502 74.0137C115.634 74.0799 115.7 74.146 115.898 74.2122C116.031 74.2783 116.163 74.2783 116.362 74.2783C116.56 74.2783 116.692 74.2783 116.825 74.2122C116.957 74.146 117.089 74.0799 117.222 74.0137C117.354 73.9476 117.42 73.8153 117.486 73.6169C117.552 73.4846 117.618 73.2862 117.618 73.0877L117.751 71.5003C117.751 71.3019 117.751 71.1035 117.685 70.9712C117.618 70.8389 117.552 70.7066 117.486 70.5743C117.354 70.5082 117.288 70.3759 117.089 70.3759C116.957 70.3097 116.758 70.3097 116.626 70.3097C116.494 70.3097 116.295 70.3097 116.163 70.3759C116.031 70.442 115.898 70.5082 115.766 70.5743C115.634 70.6405 115.568 70.7727 115.502 70.9712C115.435 71.1696 115.369 71.3019 115.369 71.5003L115.237 73.0877Z" fill="white"/>
<path d="M119.802 74.8736L120.265 69.7144H120.926L120.595 73.683H120.661L121.389 72.6247L123.506 69.7144H124.168L123.704 74.8736H123.043L123.374 70.905H123.308L122.448 72.0956L120.397 74.8736H119.802Z" fill="white"/>
<path d="M125.027 74.4106L125.424 73.8815C125.491 73.9476 125.557 74.0137 125.689 74.0137C125.755 74.0799 125.887 74.0799 126.02 74.146C126.152 74.2122 126.218 74.2122 126.351 74.2122C126.483 74.2122 126.549 74.2122 126.681 74.2122C127.078 74.2122 127.409 74.146 127.607 73.9476C127.806 73.7492 127.938 73.5507 127.938 73.22C127.938 72.9555 127.872 72.6909 127.74 72.5586C127.607 72.4263 127.343 72.3602 127.078 72.3602H126.483L126.549 71.7649H127.078C127.21 71.7649 127.277 71.7649 127.409 71.6987C127.541 71.6326 127.607 71.6326 127.74 71.5665C127.806 71.5003 127.938 71.4342 128.004 71.3019C128.07 71.1696 128.137 71.0373 128.137 70.905C128.137 70.6405 128.07 70.442 127.872 70.3097C127.674 70.1775 127.475 70.1113 127.144 70.1113C127.078 70.1113 126.946 70.1113 126.814 70.1113C126.681 70.1113 126.615 70.1775 126.483 70.1775C126.351 70.2436 126.284 70.2436 126.152 70.3097C126.086 70.3759 125.954 70.442 125.887 70.442L125.557 69.9129C125.755 69.7806 126.02 69.6483 126.218 69.5822C126.483 69.516 126.747 69.4499 127.144 69.4499C127.343 69.4499 127.541 69.4499 127.74 69.516C127.938 69.5822 128.07 69.6483 128.203 69.7145C128.335 69.8467 128.467 69.979 128.534 70.1113C128.6 70.3097 128.666 70.5082 128.6 70.7066C128.6 70.9712 128.467 71.1696 128.335 71.4342C128.203 71.6326 128.004 71.831 127.74 71.8972C127.872 71.9633 128.004 72.0295 128.07 72.0956C128.137 72.1617 128.269 72.294 128.269 72.3602C128.335 72.4925 128.335 72.5586 128.401 72.6909C128.401 72.8232 128.401 72.9555 128.401 73.0216C128.401 73.2862 128.335 73.5507 128.203 73.7492C128.07 73.9476 127.938 74.146 127.74 74.2122C127.541 74.3445 127.343 74.4106 127.144 74.4767C126.88 74.5429 126.681 74.5429 126.417 74.5429C126.284 74.5429 126.086 74.5429 125.954 74.4767C125.821 74.4767 125.689 74.4106 125.491 74.3445C125.358 74.2783 125.226 74.2122 125.094 74.146C125.226 74.5429 125.094 74.4767 125.027 74.4106Z" fill="white"/>
<path d="M129.923 74.8736L130.386 69.7144H132.503C132.767 69.7144 132.966 69.7806 133.098 69.8467C133.296 69.9129 133.429 70.0452 133.561 70.1774C133.693 70.3097 133.76 70.442 133.826 70.6404C133.892 70.7727 133.892 70.9712 133.892 71.1696C133.892 71.368 133.826 71.5664 133.693 71.7649C133.561 71.9633 133.429 72.0956 133.164 72.2279C133.429 72.3602 133.561 72.5586 133.693 72.757C133.76 72.9554 133.826 73.22 133.826 73.4184C133.826 73.6169 133.76 73.8153 133.693 73.9476C133.627 74.146 133.495 74.2783 133.363 74.4106C133.23 74.5429 133.032 74.6752 132.9 74.7413C132.701 74.8074 132.503 74.8736 132.238 74.8736H129.923ZM130.65 74.2783H132.04C132.37 74.2783 132.569 74.2122 132.767 74.0137C132.966 73.8814 133.032 73.6169 133.032 73.3523C133.032 73.22 133.032 73.0877 132.966 72.9554C132.9 72.8232 132.833 72.757 132.767 72.6909C132.701 72.6247 132.569 72.5586 132.503 72.4924C132.37 72.4263 132.304 72.4263 132.172 72.4263H130.783L130.65 74.2783ZM130.915 71.8972H132.304C132.437 71.8972 132.503 71.8972 132.635 71.831C132.767 71.831 132.833 71.7649 132.9 71.6987C132.966 71.6326 133.032 71.5664 133.098 71.4342C133.164 71.368 133.164 71.2357 133.23 71.1034C133.23 70.8389 133.164 70.6404 133.032 70.5082C132.9 70.3759 132.635 70.3097 132.37 70.3097H131.047L130.915 71.8972Z" fill="white"/>
<path d="M135.215 73.1539L135.347 71.368C135.347 71.1035 135.413 70.8389 135.546 70.6405C135.678 70.442 135.81 70.2436 136.009 70.1113C136.207 69.979 136.406 69.8467 136.67 69.7806C136.935 69.7145 137.2 69.6483 137.464 69.6483C137.729 69.6483 137.993 69.7145 138.192 69.7806C138.39 69.8467 138.589 69.979 138.787 70.1113C138.919 70.2436 139.052 70.442 139.118 70.6405C139.184 70.8389 139.25 71.1035 139.184 71.368L139.052 73.1539C139.052 73.4185 138.986 73.683 138.853 73.8814C138.721 74.0799 138.589 74.2783 138.39 74.4106C138.192 74.5429 137.993 74.6752 137.729 74.7413C137.464 74.8074 137.266 74.8736 136.935 74.8736C136.67 74.8736 136.406 74.8074 136.141 74.7413C135.943 74.6752 135.744 74.5429 135.546 74.4106C135.413 74.2783 135.281 74.0799 135.215 73.8814C135.215 73.683 135.215 73.4185 135.215 73.1539ZM135.943 73.0877C135.943 73.2862 135.943 73.4846 136.009 73.6169C136.075 73.7492 136.141 73.8815 136.207 74.0137C136.34 74.0799 136.406 74.146 136.604 74.2122C136.736 74.2783 136.869 74.2783 137.067 74.2783C137.266 74.2783 137.398 74.2783 137.53 74.2122C137.663 74.146 137.795 74.0799 137.927 74.0137C138.06 73.9476 138.126 73.8153 138.192 73.6169C138.258 73.4846 138.324 73.2862 138.324 73.0877L138.456 71.5003C138.456 71.3019 138.456 71.1035 138.39 70.9712C138.324 70.8389 138.258 70.7066 138.192 70.5743C138.06 70.5082 137.993 70.3759 137.795 70.3759C137.663 70.3097 137.464 70.3097 137.332 70.3097C137.2 70.3097 137.001 70.3097 136.869 70.3759C136.736 70.442 136.604 70.5082 136.472 70.5743C136.34 70.6405 136.273 70.7727 136.207 70.9712C136.141 71.1696 136.075 71.3019 136.075 71.5003L135.943 73.0877Z" fill="white"/>
<path d="M139.978 74.2122H140.375C140.507 74.146 140.639 74.0137 140.706 73.8814C140.772 73.7492 140.904 73.6169 140.97 73.4185C141.036 73.22 141.102 73.0216 141.169 72.6909C141.235 72.4263 141.301 72.0956 141.301 71.6987L141.566 69.6483H144.807L144.41 74.146H144.873L144.741 75.8657H144.079L144.145 74.7413H140.639L140.573 75.8657H139.912L139.978 74.2122ZM141.235 74.2783H143.749L144.079 70.3759H142.161L141.962 71.831C141.896 72.1617 141.896 72.4263 141.83 72.6909C141.764 72.9555 141.764 73.1539 141.698 73.3523C141.632 73.5507 141.566 73.683 141.499 73.8814C141.433 74.0137 141.367 74.146 141.235 74.2783Z" fill="white"/>
<path d="M146.328 73.22L146.461 71.368C146.461 71.1035 146.527 70.905 146.659 70.6405C146.792 70.3759 146.924 70.2436 147.122 70.1113C147.321 69.979 147.519 69.8467 147.718 69.7806C147.982 69.7145 148.181 69.6483 148.445 69.6483C148.71 69.6483 148.975 69.7145 149.239 69.7806C149.504 69.8467 149.702 69.979 149.901 70.1113L149.504 70.6405C149.371 70.5082 149.239 70.442 149.041 70.3759C148.842 70.3097 148.644 70.3097 148.445 70.3097C148.313 70.3097 148.181 70.3097 147.982 70.3759C147.85 70.442 147.718 70.5082 147.585 70.5743C147.453 70.6405 147.387 70.7727 147.321 70.9712C147.255 71.1035 147.188 71.3019 147.188 71.5003L147.056 73.0877C147.056 73.2862 147.056 73.4846 147.122 73.6169C147.188 73.7492 147.255 73.8815 147.387 74.0137C147.519 74.0799 147.585 74.146 147.718 74.2122C147.85 74.2783 147.982 74.2783 148.115 74.2783C148.313 74.2783 148.512 74.2783 148.71 74.2122C148.908 74.146 149.107 74.0799 149.305 73.9476L149.57 74.4767C149.371 74.609 149.173 74.7413 148.908 74.8074C148.644 74.8736 148.379 74.9397 148.048 74.9397C147.784 74.9397 147.585 74.8736 147.321 74.8074C147.122 74.7413 146.924 74.609 146.725 74.4767C146.593 74.3444 146.461 74.146 146.395 73.9476C146.328 73.7492 146.328 73.4846 146.328 73.22Z" fill="white"/>
<path d="M151.025 70.3097L151.091 69.6483H154.796L154.73 70.3097H153.274L152.878 74.8074H152.15L152.547 70.3097H151.025Z" fill="white"/>
<path d="M155.59 74.8736L156.053 69.7144H158.17C158.434 69.7144 158.633 69.7806 158.765 69.8467C158.964 69.9129 159.096 70.0452 159.228 70.1774C159.361 70.3097 159.427 70.442 159.493 70.6404C159.559 70.7727 159.559 70.9712 159.559 71.1696C159.559 71.368 159.493 71.5664 159.361 71.7649C159.228 71.9633 159.096 72.0956 158.831 72.2279C159.096 72.3602 159.228 72.5586 159.361 72.757C159.427 72.9554 159.493 73.22 159.493 73.4184C159.493 73.6169 159.427 73.8153 159.361 73.9476C159.294 74.146 159.162 74.2783 159.03 74.4106C158.897 74.5429 158.699 74.6752 158.567 74.7413C158.368 74.8074 158.17 74.8736 157.905 74.8736H155.59ZM156.318 74.2783H157.707C158.037 74.2783 158.236 74.2122 158.434 74.0137C158.633 73.8814 158.699 73.6169 158.699 73.3523C158.699 73.22 158.699 73.0877 158.633 72.9554C158.567 72.8232 158.501 72.757 158.434 72.6909C158.368 72.6247 158.236 72.5586 158.17 72.4924C158.037 72.4263 157.971 72.4263 157.839 72.4263H156.45L156.318 74.2783ZM156.516 71.8972H157.905C158.037 71.8972 158.104 71.8972 158.236 71.831C158.368 71.831 158.434 71.7649 158.501 71.6987C158.567 71.6326 158.633 71.5664 158.699 71.4342C158.765 71.368 158.765 71.2357 158.831 71.1034C158.831 70.8389 158.765 70.6404 158.633 70.5082C158.501 70.3759 158.236 70.3097 157.971 70.3097H156.648L156.516 71.8972Z" fill="white"/>
<path d="M160.882 73.1539L161.014 71.368C161.014 71.1035 161.08 70.8389 161.213 70.6405C161.345 70.442 161.477 70.2436 161.676 70.1113C161.874 69.979 162.073 69.8467 162.337 69.7806C162.602 69.7145 162.867 69.6483 163.131 69.6483C163.396 69.6483 163.66 69.7145 163.859 69.7806C164.057 69.8467 164.256 69.979 164.454 70.1113C164.586 70.2436 164.719 70.442 164.785 70.6405C164.851 70.8389 164.917 71.1035 164.851 71.368L164.719 73.1539C164.719 73.4185 164.653 73.683 164.52 73.8814C164.388 74.0799 164.256 74.2783 164.057 74.4106C163.859 74.5429 163.66 74.6752 163.396 74.7413C163.131 74.8074 162.933 74.8736 162.602 74.8736C162.337 74.8736 162.073 74.8074 161.808 74.7413C161.61 74.6752 161.411 74.5429 161.213 74.4106C161.08 74.2783 160.948 74.0799 160.882 73.8814C160.882 73.683 160.882 73.4185 160.882 73.1539ZM161.61 73.0877C161.61 73.2862 161.61 73.4846 161.676 73.6169C161.742 73.7492 161.808 73.8815 161.874 74.0137C162.007 74.0799 162.073 74.146 162.271 74.2122C162.403 74.2783 162.536 74.2783 162.734 74.2783C162.933 74.2783 163.065 74.2783 163.197 74.2122C163.33 74.146 163.462 74.0799 163.594 74.0137C163.727 73.9476 163.793 73.8153 163.859 73.6169C163.925 73.4846 163.991 73.2862 163.991 73.0877L164.123 71.5003C164.123 71.3019 164.123 71.1035 164.057 70.9712C163.991 70.8389 163.925 70.7066 163.859 70.5743C163.727 70.5082 163.66 70.3759 163.462 70.3759C163.33 70.3097 163.131 70.3097 162.999 70.3097C162.867 70.3097 162.668 70.3097 162.536 70.3759C162.403 70.442 162.271 70.5082 162.139 70.5743C162.007 70.6405 161.94 70.7727 161.874 70.9712C161.808 71.1696 161.742 71.3019 161.742 71.5003L161.61 73.0877Z" fill="white"/>
<path d="M103.396 83.406L103.859 78.2469H107.696L107.233 83.406H106.505L106.902 78.9083H104.52L104.123 83.406H103.396Z" fill="white"/>
<path d="M108.026 83.406L108.489 78.2469H110.606C110.871 78.2469 111.069 78.313 111.268 78.3792C111.466 78.4453 111.599 78.5776 111.665 78.7099C111.797 78.8422 111.863 79.0406 111.863 79.1729C111.929 79.3713 111.929 79.5697 111.929 79.702C111.929 79.9005 111.863 80.0327 111.797 80.2312C111.731 80.4296 111.599 80.5619 111.466 80.6942C111.334 80.8265 111.136 80.9587 111.003 81.0249C110.805 81.091 110.606 81.1572 110.342 81.1572H108.886L108.688 83.2076H108.026V83.406ZM108.952 80.6942H110.276C110.54 80.6942 110.805 80.628 110.937 80.4296C111.136 80.2973 111.202 80.0327 111.268 79.7682C111.268 79.5036 111.202 79.239 111.069 79.1067C110.937 78.9745 110.672 78.8422 110.408 78.8422H109.085L108.952 80.6942Z" fill="white"/>
<path d="M112.326 81.6863L112.459 79.9004C112.459 79.6359 112.525 79.3713 112.657 79.1729C112.789 78.9744 112.922 78.776 113.12 78.6437C113.319 78.5114 113.517 78.3792 113.782 78.313C114.046 78.2469 114.311 78.1807 114.575 78.1807C114.84 78.1807 115.105 78.2469 115.303 78.313C115.502 78.3792 115.7 78.5114 115.898 78.6437C116.031 78.776 116.163 78.9744 116.229 79.1729C116.295 79.3713 116.362 79.6359 116.295 79.9004L116.163 81.6863C116.163 81.9509 116.097 82.2154 115.965 82.4139C115.832 82.6123 115.7 82.8107 115.502 82.943C115.303 83.0753 115.105 83.2076 114.84 83.2737C114.575 83.3399 114.377 83.406 114.046 83.406C113.782 83.406 113.517 83.3399 113.252 83.2737C113.054 83.2076 112.855 83.0753 112.657 82.943C112.525 82.8107 112.392 82.6123 112.326 82.4139C112.326 82.2154 112.26 81.9509 112.326 81.6863ZM112.988 81.6202C112.988 81.8186 112.988 82.017 113.054 82.1493C113.12 82.2816 113.186 82.4139 113.252 82.5462C113.385 82.6123 113.451 82.6784 113.649 82.7446C113.782 82.8107 113.914 82.8107 114.112 82.8107C114.311 82.8107 114.443 82.8107 114.575 82.7446C114.708 82.6784 114.84 82.6123 114.972 82.5462C115.105 82.48 115.171 82.3477 115.237 82.1493C115.303 82.017 115.369 81.8186 115.369 81.6202L115.502 80.0327C115.502 79.8343 115.502 79.6359 115.435 79.5036C115.369 79.3713 115.303 79.239 115.237 79.1067C115.105 79.0406 115.039 78.9083 114.84 78.9083C114.708 78.8422 114.509 78.8422 114.377 78.8422C114.245 78.8422 114.046 78.8422 113.914 78.9083C113.782 78.9744 113.649 79.0406 113.517 79.1067C113.385 79.1729 113.319 79.3052 113.252 79.5036C113.186 79.6359 113.12 79.8343 113.12 80.0327L112.988 81.6202Z" fill="white"/>
<path d="M116.295 82.7446H116.692C116.825 82.6784 116.957 82.5461 117.023 82.4139C117.089 82.2816 117.222 82.1493 117.288 81.9509C117.354 81.7524 117.42 81.554 117.486 81.2233C117.552 80.9587 117.618 80.628 117.618 80.2312L117.883 78.1807H121.125L120.728 82.6784H121.191L121.058 84.3981H120.397L120.463 83.2737H116.957L116.891 84.3981H116.229L116.295 82.7446ZM117.552 82.8107H120.066L120.397 78.9083H118.478L118.28 80.3634C118.214 80.6942 118.214 80.9587 118.148 81.2233C118.082 81.4879 118.082 81.6863 118.015 81.8847C117.949 82.0832 117.883 82.2154 117.817 82.4139C117.751 82.6123 117.685 82.6784 117.552 82.8107Z" fill="white"/>
<path d="M121.455 83.406L123.704 78.2469H124.432L125.821 83.406H125.028L124.697 82.2816H122.646L122.117 83.406H121.455ZM122.977 81.6202H124.564L124.234 80.3635L123.969 79.1729L123.506 80.3635L122.977 81.6202Z" fill="white"/>
<path d="M126.086 83.406L126.747 81.7524C126.814 81.4879 126.946 81.2894 127.078 81.091C127.211 80.8926 127.409 80.7603 127.607 80.6942C127.475 80.628 127.343 80.5619 127.211 80.3634C127.078 80.2312 127.012 79.9666 126.946 79.7682L126.615 78.2469H127.277L127.607 79.702C127.674 79.9004 127.674 80.0327 127.806 80.0989C127.872 80.2312 127.938 80.2973 128.004 80.2973C128.07 80.3634 128.203 80.3634 128.269 80.4296C128.335 80.4296 128.467 80.4296 128.534 80.4296H129.129L129.327 78.1807H129.989L129.79 80.4296H130.386C130.452 80.4296 130.584 80.4296 130.65 80.4296C130.717 80.4296 130.849 80.3634 130.915 80.2973C130.981 80.2312 131.113 80.165 131.18 80.0989C131.246 79.9666 131.312 79.8343 131.444 79.702L132.04 78.2469H132.701L132.106 79.7682C132.04 80.0327 131.907 80.2312 131.775 80.3634C131.643 80.4957 131.51 80.628 131.312 80.6942C131.51 80.7603 131.643 80.8926 131.775 81.091C131.907 81.2894 131.973 81.4879 131.973 81.7524L132.304 83.406H131.577L131.246 81.8847C131.18 81.6863 131.18 81.554 131.113 81.4879C131.047 81.3556 130.981 81.2894 130.915 81.2233C130.849 81.1572 130.783 81.1572 130.65 81.091C130.584 81.091 130.452 81.091 130.386 81.091H129.724L129.526 83.406H128.864L129.063 81.091H128.401C128.269 81.091 128.203 81.091 128.137 81.091C128.07 81.091 127.938 81.1572 127.872 81.2233C127.806 81.2894 127.674 81.3556 127.607 81.4879C127.541 81.6201 127.475 81.7524 127.409 81.8847L126.814 83.406H126.086Z" fill="white"/>
<path d="M132.569 83.406L134.818 78.2469H135.546L136.935 83.406H136.207L135.876 82.2816H133.826L133.297 83.406H132.569ZM134.09 81.6202H135.678L135.347 80.3635L135.083 79.1729L134.62 80.3635L134.09 81.6202Z" fill="white"/>
<path d="M139.316 81.7524L139.449 79.9004C139.449 79.6359 139.515 79.4374 139.647 79.1729C139.779 78.9744 139.912 78.776 140.11 78.6437C140.309 78.5114 140.507 78.3792 140.706 78.313C140.97 78.2469 141.169 78.1807 141.433 78.1807C141.698 78.1807 141.962 78.2469 142.227 78.313C142.492 78.3792 142.69 78.5114 142.889 78.6437L142.492 79.1729C142.359 79.0406 142.227 78.9744 142.029 78.9083C141.83 78.8422 141.632 78.8422 141.433 78.8422C141.301 78.8422 141.169 78.8422 140.97 78.9083C140.838 78.9744 140.706 79.0406 140.573 79.1067C140.441 79.1729 140.375 79.3052 140.309 79.5036C140.242 79.6359 140.176 79.8343 140.176 80.0327L140.044 81.6202C140.044 81.8186 140.044 82.017 140.11 82.1493C140.176 82.2816 140.242 82.4139 140.375 82.5462C140.507 82.6123 140.573 82.6784 140.706 82.7446C140.838 82.8107 140.97 82.8107 141.102 82.8107C141.301 82.8107 141.499 82.8107 141.698 82.7446C141.896 82.6784 142.095 82.6123 142.293 82.48L142.558 83.0091C142.359 83.1414 142.161 83.2737 141.896 83.3399C141.632 83.406 141.367 83.4721 141.036 83.4721C140.772 83.4721 140.573 83.406 140.309 83.3399C140.11 83.2737 139.912 83.1414 139.713 83.0091C139.581 82.8769 139.449 82.6784 139.382 82.48C139.316 82.2816 139.25 82.017 139.316 81.7524Z" fill="white"/>
<path d="M143.153 83.406L143.616 78.2469H147.056L146.99 78.9083H144.212L144.079 80.5619H146.461L146.395 81.2233H144.013L143.881 82.8769H146.659L146.593 83.4722H143.153V83.406Z" fill="white"/>
<path d="M147.255 83.406L147.718 78.2469H149.835C150.099 78.2469 150.298 78.313 150.496 78.3792C150.695 78.4453 150.827 78.5776 150.893 78.7099C151.025 78.8422 151.091 79.0406 151.091 79.1729C151.158 79.3713 151.158 79.5697 151.158 79.702C151.158 79.9005 151.091 80.0327 151.025 80.2312C150.959 80.4296 150.827 80.5619 150.695 80.6942C150.562 80.8265 150.364 80.9587 150.231 81.0249C150.033 81.091 149.835 81.1572 149.57 81.1572H148.181L147.982 83.2076H147.255V83.406ZM148.181 80.6942H149.504C149.768 80.6942 150.033 80.628 150.165 80.4296C150.364 80.2973 150.43 80.0327 150.496 79.7682C150.496 79.5036 150.43 79.239 150.298 79.1067C150.165 78.9745 149.901 78.8422 149.636 78.8422H148.313L148.181 80.6942Z" fill="white"/>
<path d="M151.422 83.406L151.885 78.2469H154.002C154.267 78.2469 154.465 78.313 154.598 78.3792C154.796 78.4453 154.928 78.5776 155.061 78.7099C155.193 78.8422 155.259 78.9745 155.325 79.1729C155.391 79.3052 155.391 79.5036 155.391 79.702C155.391 79.9005 155.325 80.0989 155.193 80.2973C155.061 80.4957 154.928 80.628 154.664 80.7603C154.928 80.8926 155.061 81.091 155.193 81.2895C155.259 81.4879 155.325 81.7525 155.325 81.9509C155.325 82.1493 155.259 82.3477 155.193 82.48C155.127 82.6123 154.994 82.8107 154.862 82.943C154.73 83.0753 154.531 83.2076 154.399 83.2737C154.201 83.3399 154.002 83.406 153.738 83.406H151.422ZM152.216 82.8107H153.605C153.936 82.8107 154.134 82.7446 154.333 82.5462C154.531 82.4139 154.598 82.1493 154.598 81.8847C154.598 81.7525 154.598 81.6202 154.531 81.4879C154.465 81.3556 154.399 81.2895 154.333 81.2233C154.267 81.1572 154.134 81.091 154.068 81.0249C153.936 80.9587 153.87 80.9587 153.738 80.9587H152.348L152.216 82.8107ZM152.415 80.4296H153.804C153.936 80.4296 154.002 80.4296 154.134 80.3635C154.267 80.3635 154.333 80.2973 154.399 80.2312C154.465 80.165 154.531 80.0989 154.598 79.9666C154.664 79.9005 154.664 79.7682 154.73 79.6359C154.73 79.3713 154.664 79.1729 154.531 79.0406C154.399 78.9083 154.134 78.8422 153.87 78.8422H152.547L152.415 80.4296Z" fill="white"/>
<path d="M155.921 83.406L156.384 78.2469H157.045L156.714 82.2155H156.781L157.508 81.1572L159.625 78.2469H160.287L159.824 83.406H159.162L159.493 79.4375H159.427L158.567 80.628L156.516 83.406H155.921Z" fill="white"/>
<path d="M160.882 81.7524L161.014 79.9004C161.014 79.6359 161.08 79.4374 161.213 79.1729C161.345 78.9744 161.477 78.776 161.676 78.6437C161.874 78.5114 162.073 78.3792 162.271 78.313C162.536 78.2469 162.734 78.1807 162.999 78.1807C163.263 78.1807 163.528 78.2469 163.793 78.313C164.057 78.3792 164.256 78.5114 164.454 78.6437L164.057 79.1729C163.925 79.0406 163.793 78.9744 163.594 78.9083C163.396 78.8422 163.197 78.8422 162.999 78.8422C162.867 78.8422 162.734 78.8422 162.536 78.9083C162.404 78.9744 162.271 79.0406 162.139 79.1067C162.007 79.1729 161.94 79.3052 161.874 79.5036C161.808 79.6359 161.742 79.8343 161.742 80.0327L161.61 81.6202C161.61 81.8186 161.61 82.017 161.676 82.1493C161.742 82.2816 161.808 82.4139 161.94 82.5462C162.073 82.6123 162.139 82.6784 162.271 82.7446C162.404 82.8107 162.536 82.8107 162.668 82.8107C162.867 82.8107 163.065 82.8107 163.263 82.7446C163.462 82.6784 163.66 82.6123 163.859 82.48L164.123 83.0091C163.925 83.1414 163.727 83.2737 163.462 83.3399C163.197 83.406 162.933 83.4721 162.602 83.4721C162.337 83.4721 162.139 83.406 161.874 83.3399C161.676 83.2737 161.477 83.1414 161.279 83.0091C161.147 82.8769 161.014 82.6784 160.948 82.48C160.882 82.2816 160.816 82.017 160.882 81.7524Z" fill="white"/>
<path d="M98.0375 47.6228H93.9361L91.8854 51.1945L93.9361 54.7662H98.0375L100.088 51.1945L98.0375 47.6228Z" fill="#008AAB"/>
<path d="M63.4399 37.7675C61.5215 37.7675 59.8677 39.2888 59.7354 41.2069L58.7431 52.5835C58.4123 56.3536 58.0816 57.941 57.3539 58.6686C56.8908 59.1978 55.9647 59.5285 55.1047 59.4623L55.4355 62.9679H56.2955C57.6185 62.9679 59.4046 62.7033 60.6615 60.9836C62.3815 58.6686 62.6461 54.6339 63.1091 49.6071L63.8368 41.2069H67.2767L65.3583 62.9018H69.4597L71.6428 37.6352H63.4399V37.7675Z" fill="white"/>
<path d="M173.914 39.5534C173.914 39.0904 173.98 38.6935 174.179 38.3628C174.311 37.966 174.575 37.6352 174.84 37.3707C175.105 37.1061 175.435 36.9077 175.832 36.7092C176.229 36.577 176.626 36.4447 177.023 36.4447C177.486 36.4447 177.883 36.5108 178.214 36.7092C178.611 36.8415 178.875 37.1061 179.206 37.3707C179.471 37.6352 179.669 37.966 179.868 38.3628C180 38.7597 180.066 39.1565 180.066 39.5534C180.066 40.0164 180 40.4132 179.868 40.744C179.735 41.1408 179.471 41.4054 179.206 41.7361C178.942 42.0007 178.611 42.1991 178.214 42.3975C177.817 42.5298 177.42 42.596 177.023 42.596C176.626 42.596 176.163 42.5298 175.832 42.3975C175.435 42.2652 175.171 42.0668 174.84 41.7361C174.575 41.4715 174.377 41.1408 174.179 40.8101C173.98 40.4132 173.914 40.0164 173.914 39.5534ZM174.509 39.5534C174.509 39.8841 174.575 40.2148 174.708 40.5455C174.84 40.8762 175.039 41.1408 175.237 41.3392C175.435 41.5377 175.7 41.7361 176.031 41.8684C176.362 42.0007 176.626 42.0668 177.023 42.0668C177.354 42.0668 177.685 42.0007 178.015 41.8684C178.346 41.7361 178.545 41.5377 178.809 41.3392C179.008 41.1408 179.206 40.8762 179.338 40.5455C179.471 40.2148 179.537 39.8841 179.537 39.5534C179.537 39.2227 179.471 38.8258 179.338 38.5612C179.206 38.2305 179.008 37.966 178.809 37.7675C178.611 37.5691 178.346 37.3707 178.015 37.2384C177.685 37.1061 177.42 37.04 177.023 37.04C176.692 37.04 176.362 37.1061 176.031 37.2384C175.7 37.3707 175.502 37.5691 175.237 37.7675C175.039 37.966 174.84 38.2305 174.708 38.5612C174.575 38.892 174.509 39.2227 174.509 39.5534ZM175.832 41.3392V37.8337H177.288C177.552 37.8337 177.817 37.8998 178.015 38.0982C178.214 38.2967 178.346 38.4951 178.346 38.8258C178.346 39.0242 178.28 39.2227 178.148 39.4211C178.015 39.6195 177.883 39.6857 177.618 39.818L178.412 41.4054H177.751L177.023 39.9502H176.428V41.4054H175.832V41.3392ZM176.428 39.2888H177.155C177.354 39.2888 177.486 39.2227 177.552 39.1565C177.685 39.0904 177.685 38.9581 177.685 38.7597C177.685 38.429 177.486 38.2967 177.155 38.2967H176.362V39.2888H176.428Z" fill="#435363"/>
</g>
</g>
<defs>
<clipPath id="clip0_211_1902">
<rect width="180" height="101" fill="white"/>
</clipPath>
<clipPath id="clip1_211_1902">
<rect width="180" height="101" fill="white"/>
</clipPath>
</defs>
</svg>
