<svg width="125" height="71" viewBox="0 0 125 71" fill="none" xmlns="http://www.w3.org/2000/svg">
<g clip-path="url(#clip0_205_337)">
<g clip-path="url(#clip1_205_337)">
<path d="M0 40.788C10.4282 44.5545 17.7784 54.5678 17.7324 66.0968L29.4469 70.093C36.2459 61.3658 48.0522 57.4615 59.0316 61.0443L66.5656 51.1688C60.0882 41.6148 60.5935 29.2131 67.1169 20.2562L59.9963 10.1051C48.8791 13.3204 37.2565 9.00277 30.7791 0L18.835 3.5368C18.4675 14.6065 11.2551 24.7117 0.275634 28.2944L0 40.788Z" fill="#008AAB"/>
<path d="M57.975 34.0359C57.194 33.3929 55.9537 33.301 55.3105 33.301H54.0242C53.9323 33.301 53.8864 33.2551 53.7945 33.2091C53.7486 33.1632 53.7027 33.0713 53.7027 32.9795L54.0702 28.7537L54.5755 26.2274L54.6674 21.4504L27.9309 12.2639L17.1352 26.5948C16.7218 26.4111 16.1705 26.3193 15.4814 26.3193C14.1951 26.3193 13.2763 26.6408 12.4494 27.3298C11.4847 28.1566 11.2091 29.0293 11.1172 29.9939L10.2903 39.5937C10.1984 40.6502 10.1984 41.7526 11.1172 42.6712C11.7604 43.3143 12.8629 43.7277 13.9654 43.7277C14.9301 43.7277 15.8489 43.4521 16.584 42.9927L27.104 58.0586L54.162 49.7907L54.2999 43.498H55.0349C56.3212 43.498 57.0562 43.0846 57.4697 42.7171C58.5262 41.8444 58.6181 40.5583 58.71 39.6397L58.8938 37.4808C58.9397 36.3325 59.0775 34.9546 57.975 34.0359Z" fill="#435363"/>
<path d="M18.4676 40.145C18.3757 41.1096 18.146 42.0741 17.1813 42.9469C16.4003 43.6358 15.2059 44.0952 13.8737 44.0952C12.8171 44.0952 11.5767 43.7277 10.7958 42.9469C9.78512 41.9363 9.78512 40.788 9.87699 39.6397L10.7039 30.0398C10.7958 28.9374 11.1173 28.0188 12.128 27.1461C13.1387 26.2734 14.2412 26.0437 15.3437 26.0437C16.63 26.0437 17.5947 26.4571 18.2379 27.0542C19.2945 28.0647 19.2945 29.3508 19.2485 30.2695L19.1107 32.1527H16.2625L16.4463 29.9939C16.4922 29.5805 16.4922 29.213 16.2166 28.8456C15.9869 28.5241 15.6194 28.4322 15.2059 28.4322C14.7006 28.4322 14.3331 28.6159 14.1034 28.7996C13.6899 29.1671 13.5981 29.6724 13.5521 30.0858L12.6793 39.9153C12.6333 40.3287 12.5874 40.7421 12.909 41.1555C13.2305 41.5229 13.7359 41.5689 14.0574 41.5689C14.425 41.5689 14.8843 41.477 15.2059 41.1096C15.5275 40.7421 15.5275 40.3746 15.5734 40.0531L15.8031 37.1594H18.6513L18.4676 40.145Z" fill="white"/>
<path d="M33.7191 26.2274C32.7544 26.2274 31.7438 27.0083 31.4681 27.9729L27.1958 43.7736H30.1359L30.9169 40.5583H33.9948L34.2245 43.7736H37.2105L35.6486 28.0188C35.5567 27.0542 34.6839 26.2274 33.7191 26.2274ZM31.5141 38.078L33.3057 31.0963H33.3516L33.9029 38.078H31.5141Z" fill="white"/>
<path d="M20.259 28.6159V28.7078H23.3369L22.0047 43.7736H24.8529L26.1852 28.7078H29.2171L29.4468 26.2734H22.8776C21.5453 26.2274 20.3969 27.3298 20.259 28.6159Z" fill="white"/>
<path d="M58.1129 33.8064C57.286 33.1174 56.0457 33.0255 55.2647 33.0255H53.9784L54.5756 26.2734H54.1162C52.784 26.2734 51.6355 27.3299 51.5437 28.6619L50.2114 43.8196H55.035C56.3672 43.8196 57.1942 43.3603 57.6535 42.9929C58.848 42.0283 58.9398 40.5584 58.9858 39.5939L59.1695 37.5728C59.2614 36.2867 59.3533 34.7709 58.1129 33.8064ZM56.2754 37.5269L56.0916 39.8235C56.0916 40.0072 55.9997 40.5125 55.7241 40.834C55.3566 41.2934 54.9431 41.2934 54.6216 41.2934H53.2893L53.7947 35.414H54.9431C55.4485 35.414 55.9997 35.5059 56.2754 36.1949C56.3213 36.5623 56.3213 37.2054 56.2754 37.5269Z" fill="white"/>
<path d="M71.2974 28.6159V28.7078H74.3753L73.043 43.7736H75.8913L77.2235 28.7078H80.2555L80.4852 26.2734H73.9159C72.5837 26.2274 71.3892 27.3298 71.2974 28.6159Z" fill="white"/>
<path d="M80.531 43.7736L82.047 26.2274H86.8246C87.8812 26.2274 88.9378 26.6867 89.4432 27.2839C90.1782 28.1566 90.1323 29.213 90.0404 30.0857L89.8107 32.7039C89.7188 33.5307 89.6269 34.7709 88.7081 35.5976C88.2028 36.057 87.3759 36.4704 86.0896 36.5163C85.4465 36.5622 84.6196 36.4704 83.9764 36.3785L83.3333 43.7277H80.531V43.7736ZM85.768 33.9441C86.1815 33.9441 86.549 33.9441 86.8246 33.4388C86.8706 33.347 86.9625 33.0714 87.0543 32.1527L87.2381 30.2695C87.284 29.8561 87.33 29.4427 87.1003 29.1212C86.8247 28.7078 86.3193 28.7078 86.0437 28.7078H84.7574L84.298 33.99H85.768V33.9441Z" fill="white"/>
<path d="M108.6 39.8694C108.508 40.8339 108.278 41.7985 107.313 42.6712C106.532 43.3602 105.338 43.8196 104.006 43.8196C102.949 43.8196 101.709 43.4521 100.928 42.6712C99.9172 41.6607 99.9172 40.5124 100.009 39.3641L100.836 30.2235C100.928 29.1212 101.249 28.2025 102.26 27.3298C103.271 26.4571 104.373 26.2274 105.476 26.2274C106.762 26.2274 107.727 26.6408 108.37 27.2379C109.427 28.2484 109.427 29.5346 109.381 30.4532L109.197 32.3824H106.349L106.532 30.2235C106.578 29.8102 106.578 29.4427 106.303 29.0752C106.073 28.7537 105.706 28.6618 105.292 28.6618C104.787 28.6618 104.419 28.8456 104.19 29.0293C103.776 29.3968 103.684 29.902 103.638 30.3154L102.765 39.6856C102.719 40.099 102.674 40.5124 102.995 40.9258C103.317 41.2933 103.822 41.3392 104.144 41.3392C104.511 41.3392 104.97 41.2473 105.292 40.8799C105.614 40.5124 105.614 40.145 105.66 39.8234L105.889 36.9297H108.737L108.6 39.8694Z" fill="white"/>
<path d="M91.832 28.6159L91.1429 36.5163L90.4998 43.7736H98.1716L98.4013 41.3392H93.5777L94.083 35.368H97.5284L97.7581 32.9336H94.3127L94.6802 28.7078H99.1363L99.366 26.2734H94.4505C93.1183 26.2274 91.9698 27.3298 91.832 28.6159Z" fill="white"/>
<path d="M110.345 28.6159V28.7078H113.423L112.091 43.7736H114.939L116.272 28.7078H119.304L119.533 26.2734H112.964C111.632 26.2274 110.483 27.3298 110.345 28.6159Z" fill="white"/>
<path d="M72.3081 51.9956L72.6297 48.4128H75.2941L74.9726 51.9956H74.4672L74.7429 48.8722H73.0431L72.7675 51.9956H72.3081Z" fill="white"/>
<path d="M76.075 51.9956L76.3965 48.4128H77.8666C78.0503 48.4128 78.1881 48.4588 78.326 48.5047C78.4638 48.5506 78.5557 48.6425 78.6016 48.7344C78.6935 48.8262 78.7394 48.964 78.7394 49.0559C78.7853 49.1937 78.7853 49.3315 78.7853 49.4234C78.7853 49.5612 78.7394 49.653 78.6935 49.7908C78.6475 49.9286 78.5557 50.0205 78.4638 50.1123C78.3719 50.2042 78.2341 50.2961 78.1422 50.342C78.0044 50.3879 77.8666 50.4339 77.6828 50.4339H76.6722L76.5343 51.8578H76.075V51.9956ZM76.7181 50.1123H77.6369C77.8206 50.1123 78.0044 50.0664 78.0963 49.9286C78.2341 49.8367 78.28 49.653 78.326 49.4693C78.326 49.2856 78.28 49.1018 78.1881 49.01C78.0963 48.9181 77.9125 48.8262 77.7287 48.8262H76.81L76.7181 50.1123Z" fill="white"/>
<path d="M79.5663 50.8014L79.6582 49.5612C79.6582 49.3775 79.7041 49.1937 79.796 49.0559C79.8879 48.9181 79.9798 48.7803 80.1176 48.6885C80.2554 48.5966 80.3932 48.5047 80.577 48.4588C80.7607 48.4129 80.9445 48.3669 81.1282 48.3669C81.312 48.3669 81.4958 48.4129 81.6336 48.4588C81.7714 48.5047 81.9092 48.5966 82.047 48.6885C82.1389 48.7803 82.2308 48.9181 82.2767 49.0559C82.3227 49.1937 82.3686 49.3775 82.3227 49.5612L82.2308 50.8014C82.2308 50.9851 82.1848 51.1688 82.093 51.3066C82.0011 51.4444 81.9092 51.5822 81.7714 51.6741C81.6336 51.7659 81.4958 51.8578 81.312 51.9037C81.1282 51.9497 80.9904 51.9956 80.7607 51.9956C80.577 51.9956 80.3932 51.9497 80.2095 51.9037C80.0257 51.8578 79.9338 51.7659 79.796 51.6741C79.7041 51.5822 79.6123 51.4444 79.5663 51.3066C79.5663 51.1688 79.5204 50.9851 79.5663 50.8014ZM80.0257 50.7554C80.0257 50.8932 80.0257 51.031 80.0716 51.1229C80.1176 51.2148 80.1635 51.3066 80.2095 51.3985C80.3013 51.4444 80.3473 51.4903 80.4851 51.5363C80.577 51.5822 80.6688 51.5822 80.8067 51.5822C80.9445 51.5822 81.0364 51.5822 81.1282 51.5363C81.2201 51.4903 81.312 51.4444 81.4039 51.3985C81.4958 51.3526 81.5417 51.2607 81.5876 51.1229C81.6336 51.031 81.6795 50.8932 81.6795 50.7554L81.7714 49.6531C81.7714 49.5153 81.7714 49.3775 81.7254 49.2856C81.6795 49.1937 81.6336 49.1019 81.5876 49.01C81.4958 48.9641 81.4498 48.8722 81.312 48.8722C81.2201 48.8263 81.0823 48.8263 80.9904 48.8263C80.8985 48.8263 80.7607 48.8263 80.6689 48.8722C80.577 48.9181 80.4851 48.9641 80.3932 49.01C80.3013 49.0559 80.2554 49.1478 80.2095 49.2856C80.1635 49.4234 80.1176 49.5153 80.1176 49.6531L80.0257 50.7554Z" fill="white"/>
<path d="M83.1956 51.9956L83.5171 48.4128H83.9765L83.7468 51.1688H83.7928L84.2981 50.4339L85.7681 48.4128H86.2275L85.906 51.9956H85.4466L85.6763 49.2396H85.6303L85.0331 50.0664L83.609 51.9956H83.1956Z" fill="white"/>
<path d="M86.8247 51.6741L87.1003 51.3066C87.1463 51.3525 87.1922 51.3985 87.2841 51.3985C87.33 51.4444 87.4219 51.4444 87.5138 51.4903C87.6057 51.5363 87.6516 51.5363 87.7435 51.5363C87.8354 51.5363 87.8813 51.5363 87.9732 51.5363C88.2488 51.5363 88.4785 51.4903 88.6163 51.3525C88.7541 51.2147 88.846 51.0769 88.846 50.8473C88.846 50.6635 88.8001 50.4798 88.7082 50.388C88.6163 50.2961 88.4326 50.2502 88.2488 50.2502H87.8354L87.8813 49.8368H88.2488C88.3407 49.8368 88.3866 49.8368 88.4785 49.7908C88.5704 49.7449 88.6163 49.7449 88.7082 49.699C88.7541 49.653 88.846 49.6071 88.892 49.5152C88.9379 49.4234 88.9838 49.3315 88.9838 49.2396C88.9838 49.0559 88.9379 48.9181 88.8001 48.8262C88.6623 48.7344 88.5244 48.6885 88.2948 48.6885C88.2488 48.6885 88.1569 48.6885 88.0651 48.6885C87.9732 48.6885 87.9272 48.7344 87.8354 48.7344C87.7435 48.7803 87.6975 48.7803 87.6057 48.8262C87.5597 48.8722 87.4679 48.9181 87.4219 48.9181L87.1922 48.5507C87.33 48.4588 87.5138 48.3669 87.6516 48.321C87.8354 48.2751 88.0191 48.2291 88.2948 48.2291C88.4326 48.2291 88.5704 48.2291 88.7082 48.2751C88.846 48.321 88.9379 48.3669 89.0298 48.4129C89.1217 48.5047 89.2135 48.5966 89.2595 48.6885C89.3054 48.8262 89.3513 48.964 89.3054 49.1018C89.3054 49.2856 89.2135 49.4234 89.1217 49.6071C89.0298 49.7449 88.892 49.8827 88.7082 49.9286C88.8001 49.9746 88.892 50.0205 88.9379 50.0664C88.9838 50.1124 89.0757 50.2042 89.0757 50.2502C89.1217 50.342 89.1217 50.388 89.1676 50.4798C89.1676 50.5717 89.1676 50.6635 89.1676 50.7095C89.1676 50.8932 89.1217 51.0769 89.0298 51.2147C88.9379 51.3525 88.846 51.4903 88.7082 51.5363C88.5704 51.6281 88.4326 51.6741 88.2948 51.72C88.111 51.7659 87.9732 51.7659 87.7894 51.7659C87.6976 51.7659 87.5597 51.7659 87.4679 51.72C87.376 51.72 87.2841 51.6741 87.1463 51.6281C87.0544 51.5822 86.9625 51.5363 86.8706 51.4903C86.9625 51.7659 86.8706 51.72 86.8247 51.6741Z" fill="white"/>
<path d="M90.2244 51.9956L90.5459 48.4128H92.016C92.1997 48.4128 92.3376 48.4588 92.4294 48.5047C92.5673 48.5506 92.6591 48.6425 92.751 48.7344C92.8429 48.8262 92.8888 48.9181 92.9348 49.0559C92.9807 49.1478 92.9807 49.2856 92.9807 49.4234C92.9807 49.5612 92.9348 49.699 92.8429 49.8367C92.751 49.9745 92.6591 50.0664 92.4754 50.1583C92.6591 50.2501 92.751 50.3879 92.8429 50.5257C92.8888 50.6635 92.9348 50.8473 92.9348 50.9851C92.9348 51.1229 92.8888 51.2607 92.8429 51.3525C92.797 51.4903 92.7051 51.5822 92.6132 51.674C92.5213 51.7659 92.3835 51.8578 92.2916 51.9037C92.1538 51.9496 92.016 51.9956 91.8322 51.9956H90.2244ZM90.7297 51.5822H91.6944C91.9241 51.5822 92.0619 51.5363 92.1997 51.3985C92.3376 51.3066 92.3835 51.1229 92.3835 50.9391C92.3835 50.8473 92.3835 50.7554 92.3376 50.6635C92.2916 50.5717 92.2457 50.5257 92.1997 50.4798C92.1538 50.4339 92.0619 50.3879 92.016 50.342C91.9241 50.2961 91.8782 50.2961 91.7863 50.2961H90.8216L90.7297 51.5822ZM90.9135 49.9286H91.8782C91.9701 49.9286 92.016 49.9286 92.1079 49.8827C92.1997 49.8827 92.2457 49.8367 92.2916 49.7908C92.3376 49.7449 92.3835 49.699 92.4294 49.6071C92.4754 49.5612 92.4754 49.4693 92.5213 49.3774C92.5213 49.1937 92.4754 49.0559 92.3835 48.964C92.2916 48.8722 92.1079 48.8262 91.9241 48.8262H91.0053L90.9135 49.9286Z" fill="white"/>
<path d="M93.8994 50.8014L93.9913 49.5612C93.9913 49.3775 94.0372 49.1937 94.1291 49.0559C94.221 48.9181 94.3129 48.7803 94.4507 48.6885C94.5885 48.5966 94.7263 48.5047 94.9101 48.4588C95.0938 48.4129 95.2776 48.3669 95.4613 48.3669C95.6451 48.3669 95.8289 48.4129 95.9667 48.4588C96.1045 48.5047 96.2423 48.5966 96.3801 48.6885C96.472 48.7803 96.5639 48.9181 96.6098 49.0559C96.6558 49.1937 96.7017 49.3775 96.6558 49.5612L96.5639 50.8014C96.5639 50.9851 96.5179 51.1688 96.4261 51.3066C96.3342 51.4444 96.2423 51.5822 96.1045 51.6741C95.9667 51.7659 95.8289 51.8578 95.6451 51.9037C95.4613 51.9497 95.3235 51.9956 95.0938 51.9956C94.9101 51.9956 94.7263 51.9497 94.5426 51.9037C94.4047 51.8578 94.2669 51.7659 94.1291 51.6741C94.0372 51.5822 93.9454 51.4444 93.8994 51.3066C93.8994 51.1688 93.8994 50.9851 93.8994 50.8014ZM94.4047 50.7554C94.4047 50.8932 94.4047 51.031 94.4507 51.1229C94.4966 51.2148 94.5426 51.3066 94.5885 51.3985C94.6804 51.4444 94.7263 51.4903 94.8641 51.5363C94.956 51.5822 95.0479 51.5822 95.1857 51.5822C95.3235 51.5822 95.4154 51.5822 95.5073 51.5363C95.5992 51.4903 95.691 51.4444 95.7829 51.3985C95.8748 51.3526 95.9207 51.2607 95.9667 51.1229C96.0126 51.031 96.0586 50.8932 96.0586 50.7554L96.1504 49.6531C96.1504 49.5153 96.1504 49.3775 96.1045 49.2856C96.0585 49.1937 96.0126 49.1019 95.9667 49.01C95.8748 48.9641 95.8289 48.8722 95.691 48.8722C95.5992 48.8263 95.4613 48.8263 95.3695 48.8263C95.2776 48.8263 95.1398 48.8263 95.0479 48.8722C94.956 48.9181 94.8641 48.9641 94.7723 49.01C94.6804 49.0559 94.6344 49.1478 94.5885 49.2856C94.5426 49.4234 94.4966 49.5153 94.4966 49.6531L94.4047 50.7554Z" fill="white"/>
<path d="M97.2071 51.5363H97.4827C97.5746 51.4903 97.6665 51.3985 97.7124 51.3066C97.7583 51.2148 97.8502 51.1229 97.8962 50.9851C97.9421 50.8473 97.988 50.7095 98.034 50.4798C98.0799 50.2961 98.1259 50.0664 98.1259 49.7908L98.3096 48.3669H100.561L100.285 51.4903H100.607L100.515 52.6846H100.055L100.101 51.9037H97.6665L97.6205 52.6846H97.1611L97.2071 51.5363ZM98.0799 51.5822H99.8256L100.055 48.8722H98.7231L98.5852 49.8827C98.5393 50.1124 98.5393 50.2961 98.4934 50.4798C98.4474 50.6636 98.4474 50.8014 98.4015 50.9392C98.3555 51.077 98.3096 51.1688 98.2637 51.3066C98.2177 51.3985 98.1718 51.4904 98.0799 51.5822Z" fill="white"/>
<path d="M101.617 50.8473L101.709 49.5612C101.709 49.3775 101.755 49.2397 101.847 49.0559C101.939 48.8722 102.031 48.7803 102.168 48.6885C102.306 48.5966 102.444 48.5047 102.582 48.4588C102.766 48.4129 102.903 48.3669 103.087 48.3669C103.271 48.3669 103.455 48.4129 103.639 48.4588C103.822 48.5047 103.96 48.5966 104.098 48.6885L103.822 49.0559C103.73 48.9641 103.639 48.9181 103.501 48.8722C103.363 48.8263 103.225 48.8263 103.087 48.8263C102.995 48.8263 102.903 48.8263 102.766 48.8722C102.674 48.9181 102.582 48.9641 102.49 49.01C102.398 49.0559 102.352 49.1478 102.306 49.2856C102.26 49.3775 102.214 49.5153 102.214 49.653L102.123 50.7554C102.123 50.8932 102.123 51.031 102.168 51.1229C102.214 51.2148 102.26 51.3066 102.352 51.3985C102.444 51.4444 102.49 51.4903 102.582 51.5363C102.674 51.5822 102.766 51.5822 102.858 51.5822C102.995 51.5822 103.133 51.5822 103.271 51.5363C103.409 51.4903 103.547 51.4444 103.684 51.3526L103.868 51.72C103.73 51.8119 103.593 51.9037 103.409 51.9497C103.225 51.9956 103.041 52.0415 102.812 52.0415C102.628 52.0415 102.49 51.9956 102.306 51.9497C102.168 51.9037 102.031 51.8119 101.893 51.72C101.801 51.6281 101.709 51.4903 101.663 51.3526C101.617 51.2148 101.617 51.031 101.617 50.8473Z" fill="white"/>
<path d="M104.879 48.8263L104.925 48.3669H107.497L107.451 48.8263H106.441L106.165 51.9497H105.66L105.936 48.8263H104.879Z" fill="white"/>
<path d="M108.049 51.9956L108.37 48.4128H109.84C110.024 48.4128 110.162 48.4588 110.254 48.5047C110.391 48.5506 110.483 48.6425 110.575 48.7344C110.667 48.8262 110.713 48.9181 110.759 49.0559C110.805 49.1478 110.805 49.2856 110.805 49.4234C110.805 49.5612 110.759 49.699 110.667 49.8367C110.575 49.9745 110.483 50.0664 110.3 50.1583C110.483 50.2501 110.575 50.3879 110.667 50.5257C110.713 50.6635 110.759 50.8473 110.759 50.9851C110.759 51.1229 110.713 51.2607 110.667 51.3525C110.621 51.4903 110.529 51.5822 110.437 51.674C110.346 51.7659 110.208 51.8578 110.116 51.9037C109.978 51.9496 109.84 51.9956 109.656 51.9956H108.049ZM108.554 51.5822H109.519C109.748 51.5822 109.886 51.5363 110.024 51.3985C110.162 51.3066 110.208 51.1229 110.208 50.9391C110.208 50.8473 110.208 50.7554 110.162 50.6635C110.116 50.5717 110.07 50.5257 110.024 50.4798C109.978 50.4339 109.886 50.3879 109.84 50.342C109.748 50.2961 109.702 50.2961 109.611 50.2961H108.646L108.554 51.5822ZM108.692 49.9286H109.656C109.748 49.9286 109.794 49.9286 109.886 49.8827C109.978 49.8827 110.024 49.8367 110.07 49.7908C110.116 49.7449 110.162 49.699 110.208 49.6071C110.254 49.5612 110.254 49.4693 110.3 49.3774C110.3 49.1937 110.254 49.0559 110.162 48.964C110.07 48.8722 109.886 48.8262 109.702 48.8262H108.784L108.692 49.9286Z" fill="white"/>
<path d="M111.724 50.8014L111.816 49.5612C111.816 49.3775 111.861 49.1937 111.953 49.0559C112.045 48.9181 112.137 48.7803 112.275 48.6885C112.413 48.5966 112.551 48.5047 112.734 48.4588C112.918 48.4129 113.102 48.3669 113.286 48.3669C113.469 48.3669 113.653 48.4129 113.791 48.4588C113.929 48.5047 114.067 48.5966 114.204 48.6885C114.296 48.7803 114.388 48.9181 114.434 49.0559C114.48 49.1937 114.526 49.3775 114.48 49.5612L114.388 50.8014C114.388 50.9851 114.342 51.1688 114.25 51.3066C114.158 51.4444 114.067 51.5822 113.929 51.6741C113.791 51.7659 113.653 51.8578 113.469 51.9037C113.286 51.9497 113.148 51.9956 112.918 51.9956C112.734 51.9956 112.551 51.9497 112.367 51.9037C112.229 51.8578 112.091 51.7659 111.953 51.6741C111.861 51.5822 111.77 51.4444 111.724 51.3066C111.724 51.1688 111.724 50.9851 111.724 50.8014ZM112.229 50.7554C112.229 50.8932 112.229 51.031 112.275 51.1229C112.321 51.2148 112.367 51.3066 112.413 51.3985C112.505 51.4444 112.551 51.4903 112.688 51.5363C112.78 51.5822 112.872 51.5822 113.01 51.5822C113.148 51.5822 113.24 51.5822 113.331 51.5363C113.423 51.4903 113.515 51.4444 113.607 51.3985C113.699 51.3526 113.745 51.2607 113.791 51.1229C113.837 51.031 113.883 50.8932 113.883 50.7554L113.975 49.6531C113.975 49.5153 113.975 49.3775 113.929 49.2856C113.883 49.1937 113.837 49.1019 113.791 49.01C113.699 48.9641 113.653 48.8722 113.515 48.8722C113.423 48.8263 113.286 48.8263 113.194 48.8263C113.102 48.8263 112.964 48.8263 112.872 48.8722C112.78 48.9181 112.688 48.9641 112.596 49.01C112.505 49.0559 112.459 49.1478 112.413 49.2856C112.367 49.4234 112.321 49.5153 112.321 49.6531L112.229 50.7554Z" fill="white"/>
<path d="M71.8027 57.9209L72.1243 54.3381H74.7888L74.4672 57.9209H73.9619L74.2375 54.7975H72.5837L72.3081 57.9209H71.8027Z" fill="white"/>
<path d="M75.0186 57.9209L75.3401 54.3381H76.8102C76.9939 54.3381 77.1317 54.3841 77.2696 54.43C77.4074 54.4759 77.4993 54.5678 77.5452 54.6597C77.6371 54.7515 77.683 54.8893 77.683 54.9812C77.729 55.119 77.729 55.2568 77.729 55.3486C77.729 55.4864 77.683 55.5783 77.6371 55.7161C77.5911 55.8539 77.4993 55.9458 77.4074 56.0376C77.3155 56.1295 77.1777 56.2214 77.0858 56.2673C76.948 56.3132 76.8102 56.3592 76.6264 56.3592H75.6158L75.4779 57.7831H75.0186V57.9209ZM75.6617 56.0376H76.5805C76.7642 56.0376 76.948 55.9917 77.0399 55.8539C77.1777 55.762 77.2236 55.5783 77.2696 55.3946C77.2696 55.2109 77.2236 55.0271 77.1317 54.9353C77.0399 54.8434 76.8561 54.7515 76.6724 54.7515H75.7536L75.6617 56.0376Z" fill="white"/>
<path d="M78.0045 56.7267L78.0964 55.4865C78.0964 55.3028 78.1424 55.119 78.2342 54.9812C78.3261 54.8434 78.418 54.7056 78.5558 54.6138C78.6936 54.5219 78.8314 54.43 79.0152 54.3841C79.199 54.3382 79.3827 54.2922 79.5665 54.2922C79.7502 54.2922 79.934 54.3382 80.0718 54.3841C80.2096 54.43 80.3474 54.5219 80.4853 54.6138C80.5771 54.7056 80.669 54.8434 80.7149 54.9812C80.7609 55.119 80.8068 55.3028 80.7609 55.4865L80.669 56.7267C80.669 56.9104 80.6231 57.0941 80.5312 57.2319C80.4393 57.3697 80.3474 57.5075 80.2096 57.5994C80.0718 57.6912 79.934 57.7831 79.7502 57.829C79.5665 57.875 79.4287 57.9209 79.199 57.9209C79.0152 57.9209 78.8314 57.875 78.6477 57.829C78.5099 57.7831 78.3721 57.6912 78.2342 57.5994C78.1424 57.5075 78.0505 57.3697 78.0045 57.2319C78.0045 57.0941 77.9586 56.9104 78.0045 56.7267ZM78.4639 56.6807C78.4639 56.8185 78.4639 56.9563 78.5099 57.0482C78.5558 57.14 78.6018 57.2319 78.6477 57.3238C78.7396 57.3697 78.7855 57.4156 78.9233 57.4616C79.0152 57.5075 79.1071 57.5075 79.2449 57.5075C79.3827 57.5075 79.4746 57.5075 79.5665 57.4616C79.6583 57.4156 79.7502 57.3697 79.8421 57.3238C79.934 57.2778 79.9799 57.186 80.0259 57.0482C80.0718 56.9563 80.1177 56.8185 80.1177 56.6807L80.2096 55.5783C80.2096 55.4405 80.2096 55.3028 80.1637 55.2109C80.1177 55.119 80.0718 55.0272 80.0259 54.9353C79.934 54.8894 79.888 54.7975 79.7502 54.7975C79.6584 54.7516 79.5205 54.7516 79.4287 54.7516C79.3368 54.7516 79.199 54.7516 79.1071 54.7975C79.0152 54.8434 78.9233 54.8894 78.8315 54.9353C78.7396 54.9812 78.6936 55.0731 78.6477 55.2109C78.6018 55.3028 78.5558 55.4405 78.5558 55.5783L78.4639 56.6807Z" fill="white"/>
<path d="M80.7608 57.4616H81.0364C81.1283 57.4156 81.2202 57.3238 81.2661 57.2319C81.312 57.1401 81.4039 57.0482 81.4499 56.9104C81.4958 56.7726 81.5418 56.6348 81.5877 56.4051C81.6336 56.2214 81.6796 55.9917 81.6796 55.7161L81.8633 54.2922H84.1143L83.8387 57.4156H84.1603L84.0684 58.6099H83.609L83.6549 57.829H81.2202L81.1742 58.6099H80.7148L80.7608 57.4616ZM81.6336 57.5075H83.3793L83.609 54.7975H82.2768L82.139 55.808C82.093 56.0377 82.093 56.2214 82.0471 56.4051C82.0011 56.5889 82.0011 56.7267 81.9552 56.8645C81.9093 57.0023 81.8633 57.0941 81.8174 57.2319C81.7714 57.3697 81.7255 57.4156 81.6336 57.5075Z" fill="white"/>
<path d="M84.344 57.9209L85.9059 54.3381H86.4112L87.376 57.9209H86.8247L86.595 57.14H85.1709L84.8034 57.9209H84.344ZM85.4006 56.6807H86.5031L86.2734 55.808L86.0897 54.9812L85.7681 55.808L85.4006 56.6807Z" fill="white"/>
<path d="M87.5598 57.9209L88.0192 56.7726C88.0651 56.5889 88.157 56.4511 88.2489 56.3133C88.3408 56.1755 88.4786 56.0836 88.6164 56.0377C88.5245 55.9917 88.4327 55.9458 88.3408 55.808C88.2489 55.7161 88.203 55.5324 88.157 55.3946L87.9273 54.3382H88.3867L88.6164 55.3487C88.6623 55.4865 88.6623 55.5783 88.7542 55.6243C88.8002 55.7161 88.8461 55.7621 88.892 55.7621C88.938 55.808 89.0299 55.808 89.0758 55.8539C89.1217 55.8539 89.2136 55.8539 89.2596 55.8539H89.673L89.8108 54.2922H90.2702L90.1324 55.8539H90.5458C90.5918 55.8539 90.6837 55.8539 90.7296 55.8539C90.7755 55.8539 90.8674 55.808 90.9134 55.7621C90.9593 55.7161 91.0512 55.6702 91.0971 55.6243C91.1431 55.5324 91.189 55.4405 91.2809 55.3487L91.6943 54.3382H92.1537L91.7403 55.3946C91.6943 55.5783 91.6024 55.7161 91.5106 55.808C91.4187 55.8999 91.3268 55.9917 91.189 56.0377C91.3268 56.0836 91.4187 56.1755 91.5106 56.3133C91.6024 56.4511 91.6484 56.5889 91.6484 56.7726L91.8781 57.9209H91.3727L91.143 56.8645C91.0971 56.7267 91.0971 56.6348 91.0512 56.5889C91.0052 56.497 90.9593 56.4511 90.9134 56.4051C90.8674 56.3592 90.8215 56.3592 90.7296 56.3133C90.6837 56.3133 90.5918 56.3133 90.5458 56.3133H90.0865L89.9486 57.9209H89.4892L89.6271 56.3133H89.1677C89.0758 56.3133 89.0299 56.3133 88.9839 56.3133C88.938 56.3133 88.8461 56.3592 88.8002 56.4051C88.7542 56.4511 88.6623 56.497 88.6164 56.5889C88.5705 56.6807 88.5245 56.7726 88.4786 56.8645L88.0651 57.9209H87.5598Z" fill="white"/>
<path d="M92.0618 57.9209L93.6237 54.3381H94.129L95.0937 57.9209H94.5884L94.3587 57.14H92.9346L92.5671 57.9209H92.0618ZM93.1184 56.6807H94.2209L93.9912 55.808L93.8074 54.9812L93.4859 55.808L93.1184 56.6807Z" fill="white"/>
<path d="M96.7475 56.7726L96.8394 55.4865C96.8394 55.3028 96.8854 55.165 96.9772 54.9812C97.0691 54.8434 97.161 54.7056 97.2988 54.6138C97.4366 54.5219 97.5744 54.43 97.7123 54.3841C97.896 54.3382 98.0338 54.2922 98.2176 54.2922C98.4013 54.2922 98.5851 54.3382 98.7689 54.3841C98.9526 54.43 99.0904 54.5219 99.2282 54.6138L98.9526 54.9812C98.8607 54.8894 98.7689 54.8434 98.631 54.7975C98.4932 54.7516 98.3554 54.7516 98.2176 54.7516C98.1257 54.7516 98.0338 54.7516 97.896 54.7975C97.8041 54.8434 97.7123 54.8894 97.6204 54.9353C97.5285 54.9812 97.4826 55.0731 97.4366 55.2109C97.3907 55.3028 97.3447 55.4405 97.3447 55.5783L97.2529 56.6807C97.2529 56.8185 97.2529 56.9563 97.2988 57.0482C97.3447 57.1401 97.3907 57.2319 97.4826 57.3238C97.5744 57.3697 97.6204 57.4156 97.7123 57.4616C97.8041 57.5075 97.896 57.5075 97.9879 57.5075C98.1257 57.5075 98.2635 57.5075 98.4013 57.4616C98.5392 57.4156 98.677 57.3697 98.8148 57.2778L98.9985 57.6453C98.8607 57.7372 98.7229 57.829 98.5392 57.875C98.3554 57.9209 98.1716 57.9668 97.942 57.9668C97.7582 57.9668 97.6204 57.9209 97.4366 57.875C97.2988 57.829 97.161 57.7372 97.0232 57.6453C96.9313 57.5534 96.8394 57.4156 96.7935 57.2778C96.7475 57.1401 96.7016 56.9563 96.7475 56.7726Z" fill="white"/>
<path d="M99.4121 57.9209L99.7337 54.3381H102.123L102.077 54.7975H100.147L100.055 55.9458H101.709L101.663 56.4051H100.009L99.9174 57.5534H101.847L101.801 57.9668H99.4121V57.9209Z" fill="white"/>
<path d="M102.26 57.9209L102.582 54.3381H104.052C104.236 54.3381 104.373 54.3841 104.511 54.43C104.649 54.4759 104.741 54.5678 104.787 54.6597C104.879 54.7515 104.925 54.8893 104.925 54.9812C104.971 55.119 104.971 55.2568 104.971 55.3486C104.971 55.4864 104.925 55.5783 104.879 55.7161C104.833 55.8539 104.741 55.9458 104.649 56.0376C104.557 56.1295 104.419 56.2214 104.328 56.2673C104.19 56.3132 104.052 56.3592 103.868 56.3592H102.903L102.766 57.7831H102.26V57.9209ZM102.903 56.0376H103.822C104.006 56.0376 104.19 55.9917 104.282 55.8539C104.419 55.762 104.465 55.5783 104.511 55.3946C104.511 55.2109 104.465 55.0271 104.373 54.9353C104.282 54.8434 104.098 54.7515 103.914 54.7515H102.995L102.903 56.0376Z" fill="white"/>
<path d="M105.155 57.9209L105.476 54.3381H106.946C107.13 54.3381 107.268 54.3841 107.36 54.43C107.497 54.4759 107.589 54.5678 107.681 54.6597C107.773 54.7515 107.819 54.8434 107.865 54.9812C107.911 55.0731 107.911 55.2109 107.911 55.3486C107.911 55.4864 107.865 55.6242 107.773 55.762C107.681 55.8998 107.589 55.9917 107.406 56.0836C107.589 56.1754 107.681 56.3132 107.773 56.451C107.819 56.5888 107.865 56.7726 107.865 56.9104C107.865 57.0482 107.819 57.1859 107.773 57.2778C107.727 57.3697 107.635 57.5075 107.543 57.5993C107.451 57.6912 107.314 57.7831 107.222 57.829C107.084 57.8749 106.946 57.9209 106.762 57.9209H105.155ZM105.706 57.5075H106.671C106.9 57.5075 107.038 57.4615 107.176 57.3237C107.314 57.2319 107.36 57.0482 107.36 56.8644C107.36 56.7726 107.36 56.6807 107.314 56.5888C107.268 56.497 107.222 56.451 107.176 56.4051C107.13 56.3592 107.038 56.3132 106.992 56.2673C106.9 56.2214 106.854 56.2214 106.762 56.2214H105.798L105.706 57.5075ZM105.844 55.8539H106.808C106.9 55.8539 106.946 55.8539 107.038 55.808C107.13 55.808 107.176 55.762 107.222 55.7161C107.268 55.6702 107.314 55.6242 107.36 55.5324C107.406 55.4864 107.406 55.3946 107.451 55.3027C107.451 55.119 107.406 54.9812 107.314 54.8893C107.222 54.7975 107.038 54.7515 106.854 54.7515H105.936L105.844 55.8539Z" fill="white"/>
<path d="M108.278 57.9209L108.6 54.3381H109.059L108.83 57.0941H108.876L109.381 56.3592L110.851 54.3381H111.31L110.989 57.9209H110.529L110.759 55.1649H110.713L110.116 55.9917L108.692 57.9209H108.278Z" fill="white"/>
<path d="M111.724 56.7726L111.815 55.4865C111.815 55.3028 111.861 55.165 111.953 54.9812C112.045 54.8434 112.137 54.7056 112.275 54.6138C112.413 54.5219 112.551 54.43 112.688 54.3841C112.872 54.3382 113.01 54.2922 113.194 54.2922C113.377 54.2922 113.561 54.3382 113.745 54.3841C113.929 54.43 114.067 54.5219 114.204 54.6138L113.929 54.9812C113.837 54.8894 113.745 54.8434 113.607 54.7975C113.469 54.7516 113.331 54.7516 113.194 54.7516C113.102 54.7516 113.01 54.7516 112.872 54.7975C112.78 54.8434 112.688 54.8894 112.596 54.9353C112.505 54.9812 112.459 55.0731 112.413 55.2109C112.367 55.3028 112.321 55.4405 112.321 55.5783L112.229 56.6807C112.229 56.8185 112.229 56.9563 112.275 57.0482C112.321 57.1401 112.367 57.2319 112.459 57.3238C112.551 57.3697 112.596 57.4156 112.688 57.4616C112.78 57.5075 112.872 57.5075 112.964 57.5075C113.102 57.5075 113.24 57.5075 113.377 57.4616C113.515 57.4156 113.653 57.3697 113.791 57.2778L113.975 57.6453C113.837 57.7372 113.699 57.829 113.515 57.875C113.331 57.9209 113.148 57.9668 112.918 57.9668C112.734 57.9668 112.596 57.9209 112.413 57.875C112.275 57.829 112.137 57.7372 111.999 57.6453C111.907 57.5534 111.815 57.4156 111.77 57.2778C111.724 57.1401 111.678 56.9563 111.724 56.7726Z" fill="white"/>
<path d="M68.0817 33.0714H65.2334L63.8093 35.5518L65.2334 38.0321H68.0817L69.5058 35.5518L68.0817 33.0714Z" fill="#008AAB"/>
<path d="M44.0554 26.2275C42.7232 26.2275 41.5747 27.2839 41.4828 28.616L40.7937 36.5164C40.564 39.1345 40.3343 40.2369 39.829 40.7421C39.5074 41.1096 38.8643 41.3393 38.2671 41.2933L38.4968 43.7278H39.094C40.0128 43.7278 41.2531 43.544 42.126 42.3498C43.3204 40.7421 43.5041 37.9403 43.8257 34.4494L44.331 28.616H46.7199L45.3876 43.6818H48.2359L49.7518 26.1356H44.0554V26.2275Z" fill="white"/>
<path d="M120.774 27.4677C120.774 27.1461 120.82 26.8705 120.957 26.6409C121.049 26.3653 121.233 26.1356 121.417 25.9519C121.601 25.7682 121.83 25.6304 122.106 25.4926C122.382 25.4007 122.657 25.3088 122.933 25.3088C123.254 25.3088 123.53 25.3548 123.76 25.4926C124.035 25.5844 124.219 25.7682 124.449 25.9519C124.633 26.1356 124.77 26.3653 124.908 26.6409C125 26.9165 125.046 27.1921 125.046 27.4677C125.046 27.7892 125 28.0648 124.908 28.2944C124.816 28.57 124.633 28.7538 124.449 28.9834C124.265 29.1672 124.035 29.305 123.76 29.4428C123.484 29.5346 123.208 29.5806 122.933 29.5806C122.657 29.5806 122.336 29.5346 122.106 29.4428C121.83 29.3509 121.647 29.2131 121.417 28.9834C121.233 28.7997 121.095 28.57 120.957 28.3404C120.82 28.0648 120.774 27.7892 120.774 27.4677ZM121.187 27.4677C121.187 27.6973 121.233 27.927 121.325 28.1567C121.417 28.3863 121.555 28.57 121.692 28.7078C121.83 28.8456 122.014 28.9834 122.244 29.0753C122.473 29.1672 122.657 29.2131 122.933 29.2131C123.163 29.2131 123.392 29.1672 123.622 29.0753C123.852 28.9834 123.989 28.8456 124.173 28.7078C124.311 28.57 124.449 28.3863 124.541 28.1567C124.633 27.927 124.678 27.6973 124.678 27.4677C124.678 27.238 124.633 26.9624 124.541 26.7787C124.449 26.549 124.311 26.3653 124.173 26.2275C124.035 26.0897 123.852 25.9519 123.622 25.86C123.392 25.7682 123.208 25.7222 122.933 25.7222C122.703 25.7222 122.473 25.7682 122.244 25.86C122.014 25.9519 121.876 26.0897 121.692 26.2275C121.555 26.3653 121.417 26.549 121.325 26.7787C121.233 27.0083 121.187 27.238 121.187 27.4677ZM122.106 28.7078V26.2734H123.117C123.3 26.2734 123.484 26.3194 123.622 26.4571C123.76 26.5949 123.852 26.7327 123.852 26.9624C123.852 27.1002 123.806 27.238 123.714 27.3758C123.622 27.5136 123.53 27.5595 123.346 27.6514L123.898 28.7538H123.438L122.933 27.7433H122.519V28.7538H122.106V28.7078ZM122.519 27.2839H123.025C123.163 27.2839 123.254 27.238 123.3 27.1921C123.392 27.1461 123.392 27.0543 123.392 26.9165C123.392 26.6868 123.254 26.5949 123.025 26.5949H122.473V27.2839H122.519Z" fill="#435363"/>
</g>
</g>
<defs>
<clipPath id="clip0_205_337">
<rect width="125" height="70.1389" fill="white"/>
</clipPath>
<clipPath id="clip1_205_337">
<rect width="125" height="70.1389" fill="white"/>
</clipPath>
</defs>
</svg>
