<svg width="72" height="40" viewBox="0 0 72 40" fill="none" xmlns="http://www.w3.org/2000/svg">
<g clip-path="url(#clip0_212_5720)">
<g clip-path="url(#clip1_212_5720)">
<path d="M0 23.2613C5.94714 25.4093 10.139 31.1198 10.1128 37.6948L16.7935 39.9738C20.6709 34.9967 27.404 32.7701 33.6655 34.8134L37.9622 29.1814C34.2681 23.7328 34.5563 16.6601 38.2766 11.5521L34.2157 5.76293C27.8756 7.5966 21.2473 5.13425 17.5532 0L10.7415 2.01703C10.5319 8.33006 6.41872 14.093 0.157193 16.1362L0 23.2613Z" fill="#008AAB"/>
<path d="M33.063 19.4106C32.6176 19.0439 31.9102 18.9915 31.5434 18.9915H30.8098C30.7575 18.9915 30.7313 18.9653 30.6789 18.9391C30.6527 18.9129 30.6265 18.8605 30.6265 18.8082L30.836 16.3982L31.1242 14.9575L31.1766 12.2332L15.9289 6.99414L9.77216 15.167C9.53637 15.0622 9.22198 15.0099 8.829 15.0099C8.09543 15.0099 7.57145 15.1932 7.09987 15.5862C6.5497 16.0577 6.39251 16.5554 6.34011 17.1055L5.86853 22.5803C5.81613 23.1827 5.81613 23.8114 6.34011 24.3353C6.70689 24.7021 7.33566 24.9378 7.96444 24.9378C8.51461 24.9378 9.03859 24.7807 9.45777 24.5187L15.4573 33.1107L30.8884 28.3956L30.967 24.8068H31.3862C32.1198 24.8068 32.539 24.5711 32.7748 24.3615C33.3773 23.8638 33.4297 23.1304 33.4821 22.6065L33.5869 21.3753C33.6131 20.7204 33.6917 19.9345 33.063 19.4106Z" fill="#435363"/>
<path d="M10.5319 22.8946C10.4795 23.4447 10.3485 23.9948 9.79835 24.4925C9.35297 24.8854 8.6718 25.1474 7.91203 25.1474C7.30946 25.1474 6.60209 24.9378 6.15671 24.4925C5.58033 23.9162 5.58033 23.2613 5.63273 22.6064L6.10431 17.1316C6.15671 16.503 6.3401 15.9791 6.91648 15.4813C7.49285 14.9836 8.12163 14.8527 8.7504 14.8527C9.48397 14.8527 10.0341 15.0884 10.4009 15.429C11.0035 16.0052 11.0035 16.7387 10.9773 17.2626L10.8987 18.3366H9.27438L9.37917 17.1054C9.40537 16.8697 9.40537 16.6601 9.24818 16.4506C9.11718 16.2672 8.90759 16.2148 8.6718 16.2148C8.38361 16.2148 8.17402 16.3196 8.04303 16.4244C7.80724 16.6339 7.75484 16.9221 7.72864 17.1578L7.23086 22.7636C7.20466 22.9994 7.17847 23.2351 7.36186 23.4709C7.54525 23.6804 7.83344 23.7066 8.01683 23.7066C8.22642 23.7066 8.48841 23.6542 8.6718 23.4447C8.85519 23.2351 8.85519 23.0255 8.88139 22.8422L9.01239 21.1919H10.6367L10.5319 22.8946Z" fill="white"/>
<path d="M19.2299 14.9574C18.6798 14.9574 18.1034 15.4027 17.9462 15.9528L15.5097 24.9639H17.1864L17.6318 23.1303H19.3871L19.5181 24.9639H21.2211L20.3303 15.979C20.2779 15.4289 19.7801 14.9574 19.2299 14.9574ZM17.9724 21.7157L18.9942 17.7341H19.0204L19.3347 21.7157H17.9724Z" fill="white"/>
<path d="M11.5537 16.3195V16.3719H13.309L12.5493 24.9639H14.1736L14.9334 16.3719H16.6625L16.7935 14.9836H13.047C12.2873 14.9574 11.6323 15.5861 11.5537 16.3195Z" fill="white"/>
<path d="M33.1416 19.2796C32.67 18.8867 31.9626 18.8343 31.5173 18.8343H30.7837L31.1243 14.9836H30.8623C30.1025 14.9836 29.4475 15.5861 29.3951 16.3458L28.6354 24.9902H31.3863C32.146 24.9902 32.6176 24.7282 32.8796 24.5187C33.5608 23.9686 33.6132 23.1303 33.6394 22.5802L33.7442 21.4277C33.7966 20.6942 33.849 19.8297 33.1416 19.2796ZM32.0936 21.4015L31.9888 22.7112C31.9888 22.816 31.9364 23.1041 31.7792 23.2875C31.5696 23.5495 31.3339 23.5495 31.1505 23.5495H30.3907L30.6789 20.1965H31.3339C31.622 20.1965 31.9364 20.2489 32.0936 20.6418C32.1198 20.8514 32.1198 21.2181 32.0936 21.4015Z" fill="white"/>
<path d="M40.6606 16.3195V16.3719H42.416L41.6562 24.9639H43.2805L44.0403 16.3719H45.7694L45.9004 14.9836H42.154C41.3942 14.9574 40.713 15.5861 40.6606 16.3195Z" fill="white"/>
<path d="M45.9266 24.9639L46.7912 14.9574H49.5159C50.1185 14.9574 50.721 15.2193 51.0092 15.5599C51.4284 16.0576 51.4022 16.6601 51.3498 17.1578L51.2188 18.6509C51.1664 19.1224 51.114 19.8297 50.59 20.3012C50.3018 20.5632 49.8303 20.7989 49.0967 20.8251C48.7299 20.8513 48.2583 20.7989 47.8916 20.7465L47.5248 24.9378H45.9266V24.9639ZM48.9133 19.3582C49.1491 19.3582 49.3587 19.3582 49.5159 19.07C49.5421 19.0176 49.5945 18.8605 49.6469 18.3366L49.7517 17.2626C49.7779 17.0268 49.8041 16.7911 49.6731 16.6077C49.5159 16.3719 49.2277 16.3719 49.0705 16.3719H48.3369L48.0749 19.3844H48.9133V19.3582Z" fill="white"/>
<path d="M61.9341 22.7374C61.8817 23.2875 61.7508 23.8376 61.2006 24.3353C60.7552 24.7282 60.074 24.9901 59.3143 24.9901C58.7117 24.9901 58.0043 24.7806 57.5589 24.3353C56.9826 23.759 56.9826 23.1041 57.035 22.4492L57.5065 17.2364C57.5589 16.6077 57.7423 16.0838 58.3187 15.5861C58.8951 15.0884 59.5238 14.9574 60.1526 14.9574C60.8862 14.9574 61.4364 15.1932 61.8031 15.5337C62.4057 16.11 62.4057 16.8434 62.3795 17.3674L62.2747 18.4675H60.6504L60.7552 17.2364C60.7814 17.0006 60.7814 16.7911 60.6242 16.5815C60.4932 16.3981 60.2836 16.3457 60.0478 16.3457C59.7596 16.3457 59.55 16.4505 59.4191 16.5553C59.1833 16.7649 59.1309 17.053 59.1047 17.2888L58.6069 22.6326C58.5807 22.8683 58.5545 23.1041 58.7379 23.3398C58.9213 23.5494 59.2095 23.5756 59.3929 23.5756C59.6024 23.5756 59.8644 23.5232 60.0478 23.3137C60.2312 23.1041 60.2312 22.8945 60.2574 22.7112L60.3884 21.0609H62.0127L61.9341 22.7374Z" fill="white"/>
<path d="M52.3715 16.3195L51.9785 20.8251L51.6118 24.9639H55.987L56.118 23.5756H53.3671L53.6553 20.1702H55.6202L55.7512 18.7819H53.7863L53.9959 16.3719H56.5371L56.6681 14.9836H53.8649C53.1051 14.9574 52.4501 15.5861 52.3715 16.3195Z" fill="white"/>
<path d="M62.9297 16.3195V16.3719H64.685L63.9252 24.9639H65.5496L66.3093 16.3719H68.0385L68.1695 14.9836H64.423C63.6633 14.9574 63.0083 15.5861 62.9297 16.3195Z" fill="white"/>
<path d="M41.237 29.653L41.4204 27.6097H42.9399L42.7565 29.653H42.4683L42.6255 27.8717H41.6562L41.499 29.653H41.237Z" fill="white"/>
<path d="M43.3853 29.653L43.5687 27.6097H44.4071C44.5119 27.6097 44.5905 27.6359 44.6691 27.6621C44.7477 27.6883 44.8001 27.7407 44.8263 27.7931C44.8787 27.8455 44.9048 27.9241 44.9048 27.9765C44.931 28.0551 44.931 28.1336 44.931 28.186C44.931 28.2646 44.9048 28.317 44.8786 28.3956C44.8525 28.4742 44.8001 28.5266 44.7477 28.579C44.6953 28.6314 44.6167 28.6837 44.5643 28.7099C44.4857 28.7361 44.4071 28.7623 44.3023 28.7623H43.7259L43.6473 29.5744H43.3853V29.653ZM43.7521 28.579H44.2761C44.3809 28.579 44.4857 28.5528 44.5381 28.4742C44.6167 28.4218 44.6429 28.317 44.6691 28.2122C44.6691 28.1074 44.6429 28.0027 44.5905 27.9503C44.5381 27.8979 44.4333 27.8455 44.3285 27.8455H43.8045L43.7521 28.579Z" fill="white"/>
<path d="M45.3765 28.9718L45.4288 28.2646C45.4288 28.1598 45.455 28.055 45.5074 27.9764C45.5598 27.8978 45.6122 27.8193 45.6908 27.7669C45.7694 27.7145 45.848 27.6621 45.9528 27.6359C46.0576 27.6097 46.1624 27.5835 46.2672 27.5835C46.372 27.5835 46.4768 27.6097 46.5554 27.6359C46.634 27.6621 46.7126 27.7145 46.7912 27.7669C46.8436 27.8193 46.896 27.8978 46.9222 27.9764C46.9484 28.055 46.9746 28.1598 46.9484 28.2646L46.896 28.9718C46.896 29.0766 46.8698 29.1814 46.8174 29.26C46.765 29.3386 46.7126 29.4172 46.634 29.4695C46.5554 29.5219 46.4768 29.5743 46.372 29.6005C46.2672 29.6267 46.1886 29.6529 46.0576 29.6529C45.9528 29.6529 45.848 29.6267 45.7432 29.6005C45.6384 29.5743 45.586 29.5219 45.5074 29.4695C45.455 29.4172 45.4026 29.3386 45.3765 29.26C45.3765 29.1814 45.3503 29.0766 45.3765 28.9718ZM45.6384 28.9456C45.6384 29.0242 45.6384 29.1028 45.6646 29.1552C45.6908 29.2076 45.717 29.26 45.7432 29.3124C45.7956 29.3386 45.8218 29.3648 45.9004 29.391C45.9528 29.4172 46.0052 29.4172 46.0838 29.4172C46.1624 29.4172 46.2148 29.4172 46.2672 29.391C46.3196 29.3648 46.372 29.3386 46.4244 29.3124C46.4768 29.2862 46.503 29.2338 46.5292 29.1552C46.5554 29.1028 46.5816 29.0242 46.5816 28.9456L46.634 28.317C46.634 28.2384 46.634 28.1598 46.6078 28.1074C46.5816 28.055 46.5554 28.0026 46.5292 27.9502C46.4768 27.924 46.4506 27.8716 46.372 27.8716C46.3196 27.8454 46.241 27.8454 46.1886 27.8454C46.1362 27.8454 46.0576 27.8454 46.0052 27.8716C45.9528 27.8978 45.9004 27.924 45.848 27.9502C45.7956 27.9764 45.7694 28.0288 45.7432 28.1074C45.717 28.186 45.6908 28.2384 45.6908 28.317L45.6384 28.9456Z" fill="white"/>
<path d="M47.4462 29.653L47.6296 27.6097H47.8915L47.7606 29.1815H47.7867L48.0749 28.7623L48.9133 27.6097H49.1753L48.9919 29.653H48.7299L48.8609 28.0813H48.8347L48.4941 28.5528L47.682 29.653H47.4462Z" fill="white"/>
<path d="M49.5159 29.4695L49.6731 29.26C49.6993 29.2862 49.7255 29.3123 49.7779 29.3123C49.8041 29.3385 49.8565 29.3385 49.9089 29.3647C49.9612 29.3909 49.9874 29.3909 50.0398 29.3909C50.0922 29.3909 50.1184 29.3909 50.1708 29.3909C50.328 29.3909 50.459 29.3647 50.5376 29.2862C50.6162 29.2076 50.6686 29.129 50.6686 28.998C50.6686 28.8932 50.6424 28.7884 50.59 28.7361C50.5376 28.6837 50.4328 28.6575 50.328 28.6575H50.0922L50.1184 28.4217H50.328C50.3804 28.4217 50.4066 28.4217 50.459 28.3955C50.5114 28.3693 50.5376 28.3693 50.59 28.3431C50.6162 28.3169 50.6686 28.2907 50.6948 28.2383C50.721 28.186 50.7472 28.1336 50.7472 28.0812C50.7472 27.9764 50.721 27.8978 50.6424 27.8454C50.5638 27.793 50.4852 27.7668 50.3542 27.7668C50.328 27.7668 50.2756 27.7668 50.2232 27.7668C50.1708 27.7668 50.1446 27.793 50.0922 27.793C50.0398 27.8192 50.0136 27.8192 49.9612 27.8454C49.9351 27.8716 49.8827 27.8978 49.8565 27.8978L49.7255 27.6882C49.8041 27.6359 49.9089 27.5835 49.9874 27.5573C50.0922 27.5311 50.197 27.5049 50.3542 27.5049C50.4328 27.5049 50.5114 27.5049 50.59 27.5311C50.6686 27.5573 50.721 27.5835 50.7734 27.6097C50.8258 27.6621 50.8782 27.7144 50.9044 27.7668C50.9306 27.8454 50.9568 27.924 50.9306 28.0026C50.9306 28.1074 50.8782 28.186 50.8258 28.2907C50.7734 28.3693 50.6948 28.4479 50.59 28.4741C50.6424 28.5003 50.6948 28.5265 50.721 28.5527C50.7472 28.5789 50.7996 28.6313 50.7996 28.6575C50.8258 28.7099 50.8258 28.7361 50.852 28.7884C50.852 28.8408 50.852 28.8932 50.852 28.9194C50.852 29.0242 50.8258 29.129 50.7734 29.2076C50.721 29.2862 50.6686 29.3647 50.59 29.3909C50.5114 29.4433 50.4328 29.4695 50.3542 29.4957C50.2494 29.5219 50.1708 29.5219 50.066 29.5219C50.0136 29.5219 49.935 29.5219 49.8827 29.4957C49.8303 29.4957 49.7779 29.4695 49.6993 29.4433C49.6469 29.4171 49.5945 29.3909 49.5421 29.3647C49.5945 29.5219 49.5421 29.4957 49.5159 29.4695Z" fill="white"/>
<path d="M51.4546 29.653L51.638 27.6097H52.4763C52.5811 27.6097 52.6597 27.6359 52.7121 27.6621C52.7907 27.6883 52.8431 27.7407 52.8955 27.7931C52.9479 27.8455 52.9741 27.8979 53.0003 27.9765C53.0265 28.0289 53.0265 28.1074 53.0265 28.186C53.0265 28.2646 53.0003 28.3432 52.9479 28.4218C52.8955 28.5004 52.8431 28.5528 52.7383 28.6052C52.8431 28.6575 52.8955 28.7361 52.9479 28.8147C52.9741 28.8933 53.0003 28.9981 53.0003 29.0767C53.0003 29.1553 52.9741 29.2338 52.9479 29.2862C52.9217 29.3648 52.8693 29.4172 52.8169 29.4696C52.7645 29.522 52.6859 29.5744 52.6335 29.6006C52.5549 29.6268 52.4763 29.653 52.3716 29.653H51.4546ZM51.7428 29.4172H52.293C52.424 29.4172 52.5025 29.391 52.5811 29.3124C52.6597 29.26 52.6859 29.1553 52.6859 29.0505C52.6859 28.9981 52.6859 28.9457 52.6597 28.8933C52.6335 28.8409 52.6073 28.8147 52.5811 28.7885C52.5549 28.7623 52.5025 28.7361 52.4763 28.7099C52.424 28.6837 52.3978 28.6837 52.3454 28.6837H51.7952L51.7428 29.4172ZM51.8476 28.4742H52.3978C52.4501 28.4742 52.4763 28.4742 52.5287 28.448C52.5811 28.448 52.6073 28.4218 52.6335 28.3956C52.6597 28.3694 52.6859 28.3432 52.7121 28.2908C52.7383 28.2646 52.7383 28.2122 52.7645 28.1598C52.7645 28.0551 52.7383 27.9765 52.6859 27.9241C52.6335 27.8717 52.5287 27.8455 52.424 27.8455H51.9L51.8476 28.4742Z" fill="white"/>
<path d="M53.5505 28.9718L53.6029 28.2646C53.6029 28.1598 53.6291 28.055 53.6815 27.9764C53.7339 27.8978 53.7863 27.8193 53.8649 27.7669C53.9435 27.7145 54.0221 27.6621 54.1269 27.6359C54.2316 27.6097 54.3364 27.5835 54.4412 27.5835C54.546 27.5835 54.6508 27.6097 54.7294 27.6359C54.808 27.6621 54.8866 27.7145 54.9652 27.7669C55.0176 27.8193 55.07 27.8978 55.0962 27.9764C55.1224 28.055 55.1486 28.1598 55.1224 28.2646L55.07 28.9718C55.07 29.0766 55.0438 29.1814 54.9914 29.26C54.939 29.3386 54.8866 29.4172 54.808 29.4695C54.7294 29.5219 54.6508 29.5743 54.546 29.6005C54.4412 29.6267 54.3626 29.6529 54.2316 29.6529C54.1269 29.6529 54.0221 29.6267 53.9173 29.6005C53.8387 29.5743 53.7601 29.5219 53.6815 29.4695C53.6291 29.4172 53.5767 29.3386 53.5505 29.26C53.5505 29.1814 53.5505 29.0766 53.5505 28.9718ZM53.8387 28.9456C53.8387 29.0242 53.8387 29.1028 53.8649 29.1552C53.8911 29.2076 53.9173 29.26 53.9435 29.3124C53.9959 29.3386 54.0221 29.3648 54.1007 29.391C54.1531 29.4172 54.2054 29.4172 54.284 29.4172C54.3626 29.4172 54.415 29.4172 54.4674 29.391C54.5198 29.3648 54.5722 29.3386 54.6246 29.3124C54.677 29.2862 54.7032 29.2338 54.7294 29.1552C54.7556 29.1028 54.7818 29.0242 54.7818 28.9456L54.8342 28.317C54.8342 28.2384 54.8342 28.1598 54.808 28.1074C54.7818 28.055 54.7556 28.0026 54.7294 27.9502C54.677 27.924 54.6508 27.8716 54.5722 27.8716C54.5198 27.8454 54.4412 27.8454 54.3888 27.8454C54.3364 27.8454 54.2578 27.8454 54.2054 27.8716C54.1531 27.8978 54.1007 27.924 54.0483 27.9502C53.9959 27.9764 53.9697 28.0288 53.9435 28.1074C53.9173 28.186 53.8911 28.2384 53.8911 28.317L53.8387 28.9456Z" fill="white"/>
<path d="M55.4368 29.391H55.594C55.6464 29.3648 55.6988 29.3124 55.725 29.26C55.7512 29.2076 55.8036 29.1552 55.8298 29.0766C55.856 28.998 55.8822 28.9194 55.9084 28.7885C55.9346 28.6837 55.9608 28.5527 55.9608 28.3955L56.0656 27.5835H57.3494L57.1922 29.3648H57.3756L57.3232 30.0458H57.0612L57.0874 29.6005H55.6988L55.6726 30.0458H55.4106L55.4368 29.391ZM55.9346 29.4172H56.9302L57.0612 27.8716H56.3014L56.2228 28.4479C56.1966 28.5789 56.1966 28.6837 56.1704 28.7885C56.1442 28.8933 56.1442 28.9718 56.118 29.0504C56.0918 29.129 56.0656 29.1814 56.0394 29.26C56.0132 29.3124 55.987 29.3648 55.9346 29.4172Z" fill="white"/>
<path d="M57.9519 28.998L58.0043 28.2646C58.0043 28.1598 58.0305 28.0812 58.0829 27.9764C58.1353 27.8716 58.1877 27.8193 58.2663 27.7669C58.3449 27.7145 58.4235 27.6621 58.5021 27.6359C58.6069 27.6097 58.6855 27.5835 58.7903 27.5835C58.8951 27.5835 58.9999 27.6097 59.1047 27.6359C59.2095 27.6621 59.288 27.7145 59.3666 27.7669L59.2095 27.9764C59.1571 27.924 59.1047 27.8978 59.0261 27.8716C58.9475 27.8454 58.8689 27.8454 58.7903 27.8454C58.7379 27.8454 58.6855 27.8454 58.6069 27.8716C58.5545 27.8978 58.5021 27.924 58.4497 27.9502C58.3973 27.9764 58.3711 28.0288 58.3449 28.1074C58.3187 28.1598 58.2925 28.2384 58.2925 28.317L58.2401 28.9456C58.2401 29.0242 58.2401 29.1028 58.2663 29.1552C58.2925 29.2076 58.3187 29.26 58.3711 29.3124C58.4235 29.3386 58.4497 29.3648 58.5021 29.391C58.5545 29.4172 58.6069 29.4172 58.6593 29.4172C58.7379 29.4172 58.8165 29.4172 58.8951 29.391C58.9737 29.3648 59.0523 29.3386 59.1309 29.2862L59.2357 29.4957C59.1571 29.5481 59.0785 29.6005 58.9737 29.6267C58.8689 29.6529 58.7641 29.6791 58.6331 29.6791C58.5283 29.6791 58.4497 29.6529 58.3449 29.6267C58.2663 29.6005 58.1877 29.5481 58.1091 29.4957C58.0567 29.4434 58.0043 29.3648 57.9781 29.2862C57.9519 29.2076 57.9519 29.1028 57.9519 28.998Z" fill="white"/>
<path d="M59.812 27.8454L59.8382 27.5835H61.3053L61.2791 27.8454H60.7028L60.5456 29.6267H60.2574L60.4146 27.8454H59.812Z" fill="white"/>
<path d="M61.6198 29.653L61.8031 27.6097H62.6415C62.7463 27.6097 62.8249 27.6359 62.8773 27.6621C62.9559 27.6883 63.0083 27.7407 63.0607 27.7931C63.1131 27.8455 63.1393 27.8979 63.1655 27.9765C63.1917 28.0289 63.1917 28.1074 63.1917 28.186C63.1917 28.2646 63.1655 28.3432 63.1131 28.4218C63.0607 28.5004 63.0083 28.5528 62.9035 28.6052C63.0083 28.6575 63.0607 28.7361 63.1131 28.8147C63.1393 28.8933 63.1655 28.9981 63.1655 29.0767C63.1655 29.1553 63.1393 29.2338 63.1131 29.2862C63.0869 29.3648 63.0345 29.4172 62.9821 29.4696C62.9297 29.522 62.8511 29.5744 62.7987 29.6006C62.7201 29.6268 62.6415 29.653 62.5367 29.653H61.6198ZM61.9079 29.4172H62.4581C62.5891 29.4172 62.6677 29.391 62.7463 29.3124C62.8249 29.26 62.8511 29.1553 62.8511 29.0505C62.8511 28.9981 62.8511 28.9457 62.8249 28.8933C62.7987 28.8409 62.7725 28.8147 62.7463 28.7885C62.7201 28.7623 62.6677 28.7361 62.6415 28.7099C62.5891 28.6837 62.5629 28.6837 62.5105 28.6837H61.9603L61.9079 29.4172ZM61.9865 28.4742H62.5367C62.5891 28.4742 62.6153 28.4742 62.6677 28.448C62.7201 28.448 62.7463 28.4218 62.7725 28.3956C62.7987 28.3694 62.8249 28.3432 62.8511 28.2908C62.8773 28.2646 62.8773 28.2122 62.9035 28.1598C62.9035 28.0551 62.8773 27.9765 62.8249 27.9241C62.7725 27.8717 62.6677 27.8455 62.5629 27.8455H62.0389L61.9865 28.4742Z" fill="white"/>
<path d="M63.7156 28.9718L63.768 28.2646C63.768 28.1598 63.7942 28.055 63.8466 27.9764C63.899 27.8978 63.9514 27.8193 64.03 27.7669C64.1086 27.7145 64.1872 27.6621 64.292 27.6359C64.3968 27.6097 64.5016 27.5835 64.6064 27.5835C64.7112 27.5835 64.816 27.6097 64.8946 27.6359C64.9732 27.6621 65.0518 27.7145 65.1304 27.7669C65.1828 27.8193 65.2352 27.8978 65.2614 27.9764C65.2876 28.055 65.3138 28.1598 65.2876 28.2646L65.2352 28.9718C65.2352 29.0766 65.209 29.1814 65.1566 29.26C65.1042 29.3386 65.0518 29.4172 64.9732 29.4695C64.8946 29.5219 64.816 29.5743 64.7112 29.6005C64.6064 29.6267 64.5278 29.6529 64.3968 29.6529C64.292 29.6529 64.1872 29.6267 64.0824 29.6005C64.0038 29.5743 63.9252 29.5219 63.8466 29.4695C63.7942 29.4172 63.7418 29.3386 63.7156 29.26C63.7156 29.1814 63.7156 29.0766 63.7156 28.9718ZM64.0038 28.9456C64.0038 29.0242 64.0038 29.1028 64.03 29.1552C64.0562 29.2076 64.0824 29.26 64.1086 29.3124C64.161 29.3386 64.1872 29.3648 64.2658 29.391C64.3182 29.4172 64.3706 29.4172 64.4492 29.4172C64.5278 29.4172 64.5802 29.4172 64.6326 29.391C64.685 29.3648 64.7374 29.3386 64.7898 29.3124C64.8422 29.2862 64.8684 29.2338 64.8946 29.1552C64.9208 29.1028 64.947 29.0242 64.947 28.9456L64.9994 28.317C64.9994 28.2384 64.9994 28.1598 64.9732 28.1074C64.947 28.055 64.9208 28.0026 64.8946 27.9502C64.8422 27.924 64.816 27.8716 64.7374 27.8716C64.685 27.8454 64.6064 27.8454 64.554 27.8454C64.5016 27.8454 64.423 27.8454 64.3706 27.8716C64.3182 27.8978 64.2658 27.924 64.2134 27.9502C64.161 27.9764 64.1348 28.0288 64.1086 28.1074C64.0824 28.186 64.0562 28.2384 64.0562 28.317L64.0038 28.9456Z" fill="white"/>
<path d="M40.9489 33.0321L41.1322 30.9889H42.6518L42.4684 33.0321H42.1802L42.3374 31.2508H41.3942L41.237 33.0321H40.9489Z" fill="white"/>
<path d="M42.7828 33.0321L42.9662 30.9889H43.8045C43.9093 30.9889 43.9879 31.0151 44.0665 31.0413C44.1451 31.0675 44.1975 31.1199 44.2237 31.1723C44.2761 31.2246 44.3023 31.3032 44.3023 31.3556C44.3285 31.4342 44.3285 31.5128 44.3285 31.5652C44.3285 31.6438 44.3023 31.6962 44.2761 31.7747C44.2499 31.8533 44.1975 31.9057 44.1451 31.9581C44.0927 32.0105 44.0141 32.0629 43.9617 32.0891C43.8831 32.1153 43.8045 32.1415 43.6997 32.1415H43.1234L43.0448 32.9535H42.7828V33.0321ZM43.1496 31.9581H43.6735C43.7783 31.9581 43.8831 31.9319 43.9355 31.8533C44.0141 31.8009 44.0403 31.6962 44.0665 31.5914C44.0665 31.4866 44.0403 31.3818 43.9879 31.3294C43.9355 31.277 43.8307 31.2246 43.7259 31.2246H43.202L43.1496 31.9581Z" fill="white"/>
<path d="M44.4857 32.351L44.5381 31.6437C44.5381 31.5389 44.5643 31.4342 44.6167 31.3556C44.6691 31.277 44.7215 31.1984 44.8001 31.146C44.8787 31.0936 44.9573 31.0412 45.0621 31.015C45.1669 30.9888 45.2717 30.9626 45.3765 30.9626C45.4813 30.9626 45.5861 30.9888 45.6647 31.015C45.7432 31.0412 45.8218 31.0936 45.9004 31.146C45.9528 31.1984 46.0052 31.277 46.0314 31.3556C46.0576 31.4342 46.0838 31.5389 46.0576 31.6437L46.0052 32.351C46.0052 32.4558 45.979 32.5606 45.9266 32.6391C45.8742 32.7177 45.8218 32.7963 45.7433 32.8487C45.6647 32.9011 45.5861 32.9535 45.4813 32.9797C45.3765 33.0059 45.2979 33.0321 45.1669 33.0321C45.0621 33.0321 44.9573 33.0059 44.8525 32.9797C44.7739 32.9535 44.6953 32.9011 44.6167 32.8487C44.5643 32.7963 44.5119 32.7177 44.4857 32.6391C44.4857 32.5606 44.4595 32.4558 44.4857 32.351ZM44.7477 32.3248C44.7477 32.4034 44.7477 32.482 44.7739 32.5344C44.8001 32.5867 44.8263 32.6391 44.8525 32.6915C44.9049 32.7177 44.9311 32.7439 45.0097 32.7701C45.0621 32.7963 45.1145 32.7963 45.1931 32.7963C45.2717 32.7963 45.3241 32.7963 45.3765 32.7701C45.4289 32.7439 45.4813 32.7177 45.5337 32.6915C45.5861 32.6653 45.6123 32.6129 45.6385 32.5344C45.6647 32.482 45.6908 32.4034 45.6908 32.3248L45.7433 31.6961C45.7433 31.6175 45.7432 31.5389 45.7171 31.4865C45.6909 31.4342 45.6647 31.3818 45.6385 31.3294C45.5861 31.3032 45.5599 31.2508 45.4813 31.2508C45.4289 31.2246 45.3503 31.2246 45.2979 31.2246C45.2455 31.2246 45.1669 31.2246 45.1145 31.2508C45.0621 31.277 45.0097 31.3032 44.9573 31.3294C44.9049 31.3556 44.8787 31.408 44.8525 31.4865C44.8263 31.5389 44.8001 31.6175 44.8001 31.6961L44.7477 32.3248Z" fill="white"/>
<path d="M46.0576 32.7701H46.2148C46.2672 32.7439 46.3196 32.6915 46.3458 32.6391C46.372 32.5867 46.4244 32.5344 46.4506 32.4558C46.4768 32.3772 46.503 32.2986 46.5292 32.1676C46.5554 32.0628 46.5816 31.9319 46.5816 31.7747L46.6864 30.9626H47.9702L47.813 32.7439H47.9963L47.944 33.425H47.682L47.7082 32.9797H46.3196L46.2934 33.425H46.0314L46.0576 32.7701ZM46.5554 32.7963H47.551L47.682 31.2508H46.9222L46.8436 31.8271C46.8174 31.9581 46.8174 32.0628 46.7912 32.1676C46.765 32.2724 46.765 32.351 46.7388 32.4296C46.7126 32.5082 46.6864 32.5606 46.6602 32.6391C46.634 32.7177 46.6078 32.7439 46.5554 32.7963Z" fill="white"/>
<path d="M48.1011 33.0321L48.9919 30.9889H49.2801L49.8303 33.0321H49.5159L49.3849 32.5868H48.5727L48.3631 33.0321H48.1011ZM48.7037 32.3248H49.3325L49.2015 31.8271L49.0967 31.3556L48.9133 31.8271L48.7037 32.3248Z" fill="white"/>
<path d="M49.9351 33.0321L50.197 32.3772C50.2232 32.2724 50.2756 32.1938 50.328 32.1152C50.3804 32.0366 50.459 31.9843 50.5376 31.9581C50.4852 31.9319 50.4328 31.9057 50.3804 31.8271C50.328 31.7747 50.3018 31.6699 50.2756 31.5913L50.1446 30.9888H50.4066L50.5376 31.5651C50.5638 31.6437 50.5638 31.6961 50.6162 31.7223C50.6424 31.7747 50.6686 31.8009 50.6948 31.8009C50.721 31.8271 50.7734 31.8271 50.7996 31.8533C50.8258 31.8533 50.8782 31.8533 50.9044 31.8533H51.1402L51.2188 30.9626H51.4808L51.4022 31.8533H51.638C51.6642 31.8533 51.7166 31.8533 51.7428 31.8533C51.769 31.8533 51.8214 31.8271 51.8476 31.8009C51.8738 31.7747 51.9262 31.7485 51.9524 31.7223C51.9786 31.6699 52.0048 31.6175 52.0572 31.5651L52.293 30.9888H52.5549L52.3192 31.5913C52.293 31.6961 52.2406 31.7747 52.1882 31.8271C52.1358 31.8795 52.0834 31.9319 52.0048 31.9581C52.0834 31.9843 52.1358 32.0366 52.1882 32.1152C52.2406 32.1938 52.2668 32.2724 52.2668 32.3772L52.3978 33.0321H52.1096L51.9786 32.4296C51.9524 32.351 51.9524 32.2986 51.9262 32.2724C51.9 32.22 51.8738 32.1938 51.8476 32.1676C51.8214 32.1414 51.7952 32.1414 51.7428 32.1152C51.7166 32.1152 51.6642 32.1152 51.638 32.1152H51.376L51.2974 33.0321H51.0354L51.114 32.1152H50.852C50.7996 32.1152 50.7734 32.1152 50.7472 32.1152C50.721 32.1152 50.6686 32.1414 50.6424 32.1676C50.6162 32.1938 50.5638 32.22 50.5376 32.2724C50.5114 32.3248 50.4852 32.3772 50.459 32.4296L50.2232 33.0321H49.9351Z" fill="white"/>
<path d="M52.5026 33.0321L53.3933 30.9889H53.6815L54.2317 33.0321H53.9435L53.8125 32.5868H53.0003L52.7908 33.0321H52.5026ZM53.1051 32.3248H53.7339L53.6029 31.8271L53.4981 31.3556L53.3147 31.8271L53.1051 32.3248Z" fill="white"/>
<path d="M55.1749 32.3772L55.2273 31.6437C55.2273 31.5389 55.2535 31.4604 55.3058 31.3556C55.3582 31.277 55.4106 31.1984 55.4892 31.146C55.5678 31.0936 55.6464 31.0412 55.725 31.015C55.8298 30.9888 55.9084 30.9626 56.0132 30.9626C56.118 30.9626 56.2228 30.9888 56.3276 31.015C56.4324 31.0412 56.511 31.0936 56.5896 31.146L56.4324 31.3556C56.38 31.3032 56.3276 31.277 56.249 31.2508C56.1704 31.2246 56.0918 31.2246 56.0132 31.2246C55.9608 31.2246 55.9084 31.2246 55.8298 31.2508C55.7774 31.277 55.725 31.3032 55.6726 31.3294C55.6202 31.3556 55.594 31.408 55.5678 31.4865C55.5416 31.5389 55.5154 31.6175 55.5154 31.6961L55.463 32.3248C55.463 32.4034 55.463 32.482 55.4892 32.5344C55.5154 32.5867 55.5416 32.6391 55.594 32.6915C55.6464 32.7177 55.6726 32.7439 55.725 32.7701C55.7774 32.7963 55.8298 32.7963 55.8822 32.7963C55.9608 32.7963 56.0394 32.7963 56.118 32.7701C56.1966 32.7439 56.2752 32.7177 56.3538 32.6653L56.4586 32.8749C56.38 32.9273 56.3014 32.9797 56.1966 33.0059C56.0918 33.0321 55.987 33.0583 55.856 33.0583C55.7512 33.0583 55.6726 33.0321 55.5678 33.0059C55.4892 32.9797 55.4106 32.9273 55.332 32.8749C55.2796 32.8225 55.2272 32.7439 55.2011 32.6653C55.1749 32.5867 55.1487 32.482 55.1749 32.3772Z" fill="white"/>
<path d="M56.6943 33.0321L56.8777 30.9889H58.2401L58.2139 31.2508H57.1135L57.0611 31.9057H58.0043L57.9781 32.1677H57.0349L56.9825 32.8226H58.0829L58.0567 33.0583H56.6943V33.0321Z" fill="white"/>
<path d="M58.3187 33.0321L58.5021 30.9889H59.3404C59.4452 30.9889 59.5238 31.0151 59.6024 31.0413C59.681 31.0675 59.7334 31.1199 59.7596 31.1723C59.812 31.2246 59.8382 31.3032 59.8382 31.3556C59.8644 31.4342 59.8644 31.5128 59.8644 31.5652C59.8644 31.6438 59.8382 31.6962 59.812 31.7747C59.7858 31.8533 59.7334 31.9057 59.681 31.9581C59.6286 32.0105 59.55 32.0629 59.4976 32.0891C59.419 32.1153 59.3404 32.1415 59.2356 32.1415H58.6854L58.6068 32.9535H58.3187V33.0321ZM58.6854 31.9581H59.2094C59.3142 31.9581 59.419 31.9319 59.4714 31.8533C59.55 31.8009 59.5762 31.6962 59.6024 31.5914C59.6024 31.4866 59.5762 31.3818 59.5238 31.3294C59.4714 31.277 59.3666 31.2246 59.2618 31.2246H58.7378L58.6854 31.9581Z" fill="white"/>
<path d="M59.9692 33.0321L60.1526 30.9889H60.9909C61.0957 30.9889 61.1743 31.0151 61.2267 31.0413C61.3053 31.0675 61.3577 31.1199 61.4101 31.1723C61.4625 31.2246 61.4887 31.277 61.5149 31.3556C61.5411 31.408 61.5411 31.4866 61.5411 31.5652C61.5411 31.6438 61.5149 31.7224 61.4625 31.8009C61.4101 31.8795 61.3577 31.9319 61.2529 31.9843C61.3577 32.0367 61.4101 32.1153 61.4625 32.1939C61.4887 32.2725 61.5149 32.3772 61.5149 32.4558C61.5149 32.5344 61.4887 32.613 61.4625 32.6654C61.4363 32.7178 61.3839 32.7964 61.3315 32.8487C61.2791 32.9011 61.2005 32.9535 61.1481 32.9797C61.0695 33.0059 60.9909 33.0321 60.8861 33.0321H59.9692ZM60.2836 32.7964H60.8337C60.9647 32.7964 61.0433 32.7702 61.1219 32.6916C61.2005 32.6392 61.2267 32.5344 61.2267 32.4296C61.2267 32.3772 61.2267 32.3248 61.2005 32.2725C61.1743 32.2201 61.1481 32.1939 61.1219 32.1677C61.0957 32.1415 61.0433 32.1153 61.0171 32.0891C60.9647 32.0629 60.9385 32.0629 60.8861 32.0629H60.336L60.2836 32.7964ZM60.3622 31.8533H60.9123C60.9647 31.8533 60.9909 31.8533 61.0433 31.8271C61.0957 31.8271 61.1219 31.8009 61.1481 31.7747C61.1743 31.7486 61.2005 31.7224 61.2267 31.67C61.2529 31.6438 61.2529 31.5914 61.2791 31.539C61.2791 31.4342 61.2529 31.3556 61.2005 31.3032C61.1481 31.2508 61.0433 31.2246 60.9385 31.2246H60.4146L60.3622 31.8533Z" fill="white"/>
<path d="M61.7507 33.0321L61.9341 30.9889H62.1961L62.0651 32.5606H62.0913L62.3795 32.1415L63.2179 30.9889H63.4799L63.2965 33.0321H63.0345L63.1655 31.4604H63.1393L62.7987 31.9319L61.9865 33.0321H61.7507Z" fill="white"/>
<path d="M63.7156 32.3772L63.768 31.6437C63.768 31.5389 63.7942 31.4604 63.8466 31.3556C63.899 31.277 63.9514 31.1984 64.03 31.146C64.1086 31.0936 64.1872 31.0412 64.2658 31.015C64.3706 30.9888 64.4492 30.9626 64.554 30.9626C64.6588 30.9626 64.7636 30.9888 64.8684 31.015C64.9732 31.0412 65.0518 31.0936 65.1304 31.146L64.9732 31.3556C64.9208 31.3032 64.8684 31.277 64.7898 31.2508C64.7112 31.2246 64.6326 31.2246 64.554 31.2246C64.5016 31.2246 64.4492 31.2246 64.3706 31.2508C64.3182 31.277 64.2658 31.3032 64.2134 31.3294C64.161 31.3556 64.1348 31.408 64.1086 31.4865C64.0824 31.5389 64.0562 31.6175 64.0562 31.6961L64.0038 32.3248C64.0038 32.4034 64.0038 32.482 64.03 32.5344C64.0562 32.5867 64.0824 32.6391 64.1348 32.6915C64.1872 32.7177 64.2134 32.7439 64.2658 32.7701C64.3182 32.7963 64.3706 32.7963 64.423 32.7963C64.5016 32.7963 64.5802 32.7963 64.6588 32.7701C64.7374 32.7439 64.816 32.7177 64.8946 32.6653L64.9994 32.8749C64.9208 32.9273 64.8422 32.9797 64.7374 33.0059C64.6326 33.0321 64.5278 33.0583 64.3968 33.0583C64.292 33.0583 64.2134 33.0321 64.1086 33.0059C64.03 32.9797 63.9514 32.9273 63.8728 32.8749C63.8204 32.8225 63.768 32.7439 63.7418 32.6653C63.7156 32.5867 63.6894 32.482 63.7156 32.3772Z" fill="white"/>
<path d="M38.8267 18.8605H37.2024L36.3902 20.275L37.2024 21.6896H38.8267L39.6389 20.275L38.8267 18.8605Z" fill="#008AAB"/>
<path d="M25.1247 14.9574C24.365 14.9574 23.71 15.5599 23.6576 16.3196L23.2646 20.8251C23.1336 22.3183 23.0026 22.9469 22.7144 23.2351C22.531 23.4446 22.1643 23.5756 21.8237 23.5494L21.9547 24.9378H22.2952C22.8192 24.9378 23.5266 24.833 24.0244 24.1519C24.7055 23.2351 24.8103 21.6372 24.9937 19.6464L25.2819 16.3196H26.6443L25.8845 24.9116H27.5088L28.3734 14.905H25.1247V14.9574Z" fill="white"/>
<path d="M68.8768 15.6648C68.8768 15.4814 68.903 15.3242 68.9816 15.1933C69.034 15.0361 69.1388 14.9051 69.2436 14.8003C69.3484 14.6955 69.4794 14.617 69.6366 14.5384C69.7938 14.486 69.951 14.4336 70.1082 14.4336C70.2916 14.4336 70.4488 14.4598 70.5798 14.5384C70.737 14.5908 70.8417 14.6955 70.9727 14.8003C71.0775 14.9051 71.1561 15.0361 71.2347 15.1933C71.2871 15.3504 71.3133 15.5076 71.3133 15.6648C71.3133 15.8481 71.2871 16.0053 71.2347 16.1363C71.1823 16.2934 71.0775 16.3982 70.9727 16.5292C70.8679 16.634 70.737 16.7126 70.5798 16.7912C70.4226 16.8435 70.2654 16.8697 70.1082 16.8697C69.951 16.8697 69.7676 16.8435 69.6366 16.7912C69.4794 16.7388 69.3746 16.6602 69.2436 16.5292C69.1388 16.4244 69.0602 16.2935 68.9816 16.1625C68.903 16.0053 68.8768 15.8481 68.8768 15.6648ZM69.1126 15.6648C69.1126 15.7957 69.1388 15.9267 69.1912 16.0577C69.2436 16.1887 69.3222 16.2934 69.4008 16.372C69.4794 16.4506 69.5842 16.5292 69.7152 16.5816C69.8462 16.634 69.951 16.6602 70.1082 16.6602C70.2392 16.6602 70.3702 16.634 70.5012 16.5816C70.6322 16.5292 70.7108 16.4506 70.8155 16.372C70.8941 16.2934 70.9727 16.1887 71.0251 16.0577C71.0775 15.9267 71.1037 15.7957 71.1037 15.6648C71.1037 15.5338 71.0775 15.3766 71.0251 15.2718C70.9727 15.1409 70.8941 15.0361 70.8155 14.9575C70.7369 14.8789 70.6322 14.8003 70.5012 14.7479C70.3702 14.6955 70.2654 14.6694 70.1082 14.6694C69.9772 14.6694 69.8462 14.6955 69.7152 14.7479C69.5842 14.8003 69.5056 14.8789 69.4008 14.9575C69.3222 15.0361 69.2436 15.1409 69.1912 15.2718C69.1388 15.4028 69.1126 15.5338 69.1126 15.6648ZM69.6366 16.372V14.9837H70.213C70.3178 14.9837 70.4226 15.0099 70.5012 15.0885C70.5798 15.1671 70.6322 15.2456 70.6322 15.3766C70.6322 15.4552 70.606 15.5338 70.5536 15.6124C70.5012 15.691 70.4488 15.7172 70.344 15.7695L70.6584 16.3982H70.3964L70.1082 15.8219H69.8724V16.3982H69.6366V16.372ZM69.8724 15.56H70.1606C70.2392 15.56 70.2916 15.5338 70.3178 15.5076C70.3702 15.4814 70.3702 15.429 70.3702 15.3504C70.3702 15.2194 70.2916 15.1671 70.1606 15.1671H69.8462V15.56H69.8724Z" fill="#435363"/>
</g>
</g>
<defs>
<clipPath id="clip0_212_5720">
<rect width="71.2871" height="40" fill="white"/>
</clipPath>
<clipPath id="clip1_212_5720">
<rect width="71.2871" height="40" fill="white"/>
</clipPath>
</defs>
</svg>
