<svg width="16" height="14" viewBox="0 0 16 14" fill="none" xmlns="http://www.w3.org/2000/svg">
<path fill-rule="evenodd" clip-rule="evenodd" d="M3.17441 0.599976H12.8256C13.1765 0.599966 13.4793 0.599958 13.7299 0.617056C13.9938 0.63506 14.2577 0.674663 14.5184 0.782666C15.1065 1.02625 15.5737 1.49347 15.8173 2.08154C15.9253 2.34228 15.9649 2.60621 15.9829 2.87007C16 3.12068 16 3.42347 16 3.77438V10.2256C16 10.5765 16 10.8793 15.9829 11.1299C15.9649 11.3937 15.9253 11.6577 15.8173 11.9184C15.5737 12.5065 15.1065 12.9737 14.5184 13.2173C14.2577 13.3253 13.9938 13.3649 13.7299 13.3829C13.4793 13.4 13.1765 13.4 12.8256 13.4H3.17441C2.82349 13.4 2.5207 13.4 2.27009 13.3829C2.00623 13.3649 1.7423 13.3253 1.48156 13.2173C0.893493 12.9737 0.426276 12.5065 0.18269 11.9184C0.074687 11.6577 0.035084 11.3937 0.0170808 11.1299C-1.80319e-05 10.8793 -9.35404e-06 10.5765 4.68802e-07 10.2256V3.77439C-9.35404e-06 3.42347 -1.80319e-05 3.12068 0.0170808 2.87007C0.035084 2.60621 0.074687 2.34228 0.18269 2.08154C0.426276 1.49347 0.893493 1.02625 1.48156 0.782666C1.7423 0.674663 2.00623 0.63506 2.27009 0.617056C2.5207 0.599958 2.82349 0.599966 3.17441 0.599976ZM1.70345 2.29049C2.06714 1.87486 2.6989 1.83274 3.11453 2.19642L7.3415 5.89502C7.71853 6.22491 8.28148 6.22491 8.65851 5.89502L12.8855 2.19642C13.3011 1.83274 13.9329 1.87486 14.2966 2.29049C14.6602 2.70613 14.6181 3.33789 14.2025 3.70158L9.97552 7.40017C8.84444 8.38986 7.15557 8.38986 6.02449 7.40017L1.79753 3.70158C1.38189 3.33789 1.33977 2.70613 1.70345 2.29049Z" fill="#00B2DC"/>
</svg>
