<svg width="12" height="19" viewBox="0 0 12 19" fill="none" xmlns="http://www.w3.org/2000/svg">
<path fill-rule="evenodd" clip-rule="evenodd" d="M4.22929 0.928591C4.24803 0.928592 4.26684 0.928593 4.28572 0.928593L7.77071 0.928591C8.53056 0.928548 9.18525 0.928512 9.70953 0.998999C10.2714 1.07454 10.81 1.24489 11.2468 1.68175C11.6837 2.1186 11.854 2.65719 11.9296 3.21906C12.0001 3.74334 12 4.39803 12 5.15788V13.8422C12 14.602 12.0001 15.2567 11.9296 15.781C11.854 16.3428 11.6837 16.8814 11.2468 17.3183C10.81 17.7551 10.2714 17.9255 9.70953 18.001C9.18525 18.0715 8.53054 18.0715 7.77069 18.0714H4.22931C3.46946 18.0715 2.81475 18.0715 2.29047 18.001C1.7286 17.9255 1.19001 17.7551 0.753158 17.3183C0.316305 16.8814 0.145952 16.3428 0.0704102 15.781C-7.7305e-05 15.2567 -4.06196e-05 14.602 2.09136e-06 13.8422L4.13494e-06 5.2143C4.13494e-06 5.19543 3.11315e-06 5.17662 2.09136e-06 5.15788C-4.06196e-05 4.39803 -7.7305e-05 3.74334 0.0704102 3.21906C0.145952 2.65719 0.316305 2.1186 0.753158 1.68175C1.19001 1.24489 1.7286 1.07454 2.29047 0.998999C2.81475 0.928512 3.46944 0.928548 4.22929 0.928591ZM4.57142 14.6429C4.57142 14.0906 5.01914 13.6429 5.57142 13.6429H6.42857C6.98085 13.6429 7.42857 14.0906 7.42857 14.6429C7.42857 15.1952 6.98085 15.6429 6.42857 15.6429H5.57142C5.01914 15.6429 4.57142 15.1952 4.57142 14.6429Z" fill="#00B2DC"/>
</svg>
