<?xml version="1.0" standalone="no"?>
<!DOCTYPE svg PUBLIC "-//W3C//DTD SVG 20010904//EN"
 "http://www.w3.org/TR/2001/REC-SVG-20010904/DTD/svg10.dtd">
<svg version="1.0" xmlns="http://www.w3.org/2000/svg"
 width="101.000000pt" height="101.000000pt" viewBox="0 0 101.000000 101.000000"
 preserveAspectRatio="xMidYMid meet">
<metadata>
Created by potrace 1.14, written by Peter Selinger 2001-2017
</metadata>
<g transform="translate(0.000000,101.000000) scale(0.100000,-0.100000)"
fill="#000000" stroke="none">
<path d="M445 1005 c-5 -2 -42 -13 -81 -24 l-72 -21 -6 -48 c-16 -113 -103
-232 -207 -285 l-55 -27 -2 -88 -2 -87 55 -29 c94 -49 181 -169 192 -265 8
-76 7 -75 93 -103 l81 -26 39 38 c85 83 236 128 348 102 l43 -10 54 71 c32 43
50 76 45 82 -5 5 -18 35 -30 65 -41 102 -30 242 26 337 l19 32 -49 71 -49 71
-67 -7 c-120 -12 -224 24 -312 107 -29 27 -52 49 -53 48 0 0 -4 -2 -10 -4z"/>
<path d="M944 546 c-3 -7 -4 -35 -2 -62 3 -42 6 -49 26 -52 21 -3 22 0 22 62
0 60 -2 66 -20 66 -11 0 -23 -6 -26 -14z"/>
</g>
</svg>
